<mxfile host="app.diagrams.net" agent="Mozilla/5.0 (Windows NT 10.0; Win64; x64; rv:143.0) Gecko/20100101 Firefox/143.0" version="28.2.3">
  <diagram name="Page-1" id="uYwLI_tk87T4Ox4bkWGM">
    <mxGraphModel dx="4136" dy="2791" grid="1" gridSize="10" guides="1" tooltips="1" connect="1" arrows="1" fold="1" page="1" pageScale="1" pageWidth="850" pageHeight="1100" math="0" shadow="0">
      <root>
        <mxCell id="0" />
        <mxCell id="1" parent="0" />
        <mxCell id="DC3W0lL9P1rpQiNHEUN1-1" value="Legend" style="swimlane;whiteSpace=wrap;html=1;" vertex="1" parent="1">
          <mxGeometry x="30" y="-1050" width="600" height="420" as="geometry" />
        </mxCell>
        <mxCell id="DC3W0lL9P1rpQiNHEUN1-2" value="Actor / Entity" style="rounded=0;whiteSpace=wrap;html=1;" vertex="1" parent="DC3W0lL9P1rpQiNHEUN1-1">
          <mxGeometry x="20" y="60" width="120" height="60" as="geometry" />
        </mxCell>
        <mxCell id="DC3W0lL9P1rpQiNHEUN1-3" value="&lt;div&gt;Process&lt;/div&gt;" style="ellipse;whiteSpace=wrap;html=1;aspect=fixed;" vertex="1" parent="DC3W0lL9P1rpQiNHEUN1-1">
          <mxGeometry x="40" y="250" width="80" height="80" as="geometry" />
        </mxCell>
        <mxCell id="DC3W0lL9P1rpQiNHEUN1-4" value="Storage" style="shape=partialRectangle;whiteSpace=wrap;html=1;left=0;right=0;fillColor=none;" vertex="1" parent="DC3W0lL9P1rpQiNHEUN1-1">
          <mxGeometry x="450" y="50" width="120" height="80" as="geometry" />
        </mxCell>
        <mxCell id="DC3W0lL9P1rpQiNHEUN1-5" value="" style="endArrow=classic;html=1;fontColor=#FF3333;rounded=0;" edge="1" parent="DC3W0lL9P1rpQiNHEUN1-1">
          <mxGeometry width="50" height="50" relative="1" as="geometry">
            <mxPoint x="205" y="120" as="sourcePoint" />
            <mxPoint x="255" y="70" as="targetPoint" />
          </mxGeometry>
        </mxCell>
        <mxCell id="DC3W0lL9P1rpQiNHEUN1-6" value="Data Flow" style="edgeLabel;html=1;align=center;verticalAlign=middle;resizable=0;points=[];" vertex="1" connectable="0" parent="DC3W0lL9P1rpQiNHEUN1-5">
          <mxGeometry x="0.0524" y="2" relative="1" as="geometry">
            <mxPoint as="offset" />
          </mxGeometry>
        </mxCell>
        <mxCell id="DC3W0lL9P1rpQiNHEUN1-7" value="&lt;div&gt;Multi-&lt;/div&gt;&lt;div&gt;Process&lt;/div&gt;" style="ellipse;shape=doubleEllipse;whiteSpace=wrap;html=1;aspect=fixed;" vertex="1" parent="DC3W0lL9P1rpQiNHEUN1-1">
          <mxGeometry x="190" y="250" width="80" height="80" as="geometry" />
        </mxCell>
        <mxCell id="DC3W0lL9P1rpQiNHEUN1-8" value="Trust Boundary" style="shape=requiredInterface;html=1;verticalLabelPosition=bottom;dashed=1;strokeColor=#FF3333;strokeWidth=2;fillColor=none;fontColor=#FF3333;align=center;verticalAlign=top;labelPosition=center;" vertex="1" parent="DC3W0lL9P1rpQiNHEUN1-1">
          <mxGeometry x="350" y="250" width="20" height="90" as="geometry" />
        </mxCell>
        <mxCell id="DC3W0lL9P1rpQiNHEUN1-9" value="Trust Boundary" style="html=1;fontColor=#FF3333;fontStyle=1;align=left;verticalAlign=top;spacing=0;labelBorderColor=none;fillColor=none;dashed=1;strokeWidth=2;strokeColor=#FF3333;spacingLeft=4;spacingTop=-3;" vertex="1" parent="DC3W0lL9P1rpQiNHEUN1-1">
          <mxGeometry x="440" y="270" width="130" height="80" as="geometry" />
        </mxCell>
        <mxCell id="DC3W0lL9P1rpQiNHEUN1-10" value="" style="endArrow=classic;startArrow=classic;html=1;fontColor=#FF3333;rounded=0;" edge="1" parent="DC3W0lL9P1rpQiNHEUN1-1">
          <mxGeometry width="50" height="50" relative="1" as="geometry">
            <mxPoint x="335" y="120" as="sourcePoint" />
            <mxPoint x="385" y="70" as="targetPoint" />
          </mxGeometry>
        </mxCell>
        <mxCell id="DC3W0lL9P1rpQiNHEUN1-11" value="&lt;div&gt;Bidirectional&lt;/div&gt;&lt;div&gt;Data Flow&lt;/div&gt;" style="edgeLabel;html=1;align=center;verticalAlign=middle;resizable=0;points=[];" vertex="1" connectable="0" parent="DC3W0lL9P1rpQiNHEUN1-10">
          <mxGeometry x="0.1" relative="1" as="geometry">
            <mxPoint as="offset" />
          </mxGeometry>
        </mxCell>
        <mxCell id="DC3W0lL9P1rpQiNHEUN1-12" value="or Action / Information System" style="text;html=1;align=center;verticalAlign=middle;whiteSpace=wrap;rounded=0;textOpacity=70;" vertex="1" parent="DC3W0lL9P1rpQiNHEUN1-1">
          <mxGeometry x="35" y="344" width="90" height="30" as="geometry" />
        </mxCell>
        <mxCell id="DC3W0lL9P1rpQiNHEUN1-13" value="&lt;div&gt;database, files&lt;/div&gt;&lt;div&gt;memory, etc.&lt;/div&gt;" style="text;html=1;align=center;verticalAlign=middle;whiteSpace=wrap;rounded=0;textOpacity=70;" vertex="1" parent="DC3W0lL9P1rpQiNHEUN1-1">
          <mxGeometry x="465" y="140" width="90" height="30" as="geometry" />
        </mxCell>
        <mxCell id="DC3W0lL9P1rpQiNHEUN1-14" value="&lt;div&gt;group&lt;/div&gt;&lt;div&gt;of processes&lt;/div&gt;" style="text;html=1;align=center;verticalAlign=middle;whiteSpace=wrap;rounded=0;textOpacity=70;" vertex="1" parent="DC3W0lL9P1rpQiNHEUN1-1">
          <mxGeometry x="185" y="344" width="90" height="30" as="geometry" />
        </mxCell>
        <mxCell id="DC3W0lL9P1rpQiNHEUN1-15" value="&lt;div&gt;type of data,&lt;/div&gt;&lt;div&gt;content, structure, form/protocol of communication&lt;/div&gt;" style="text;html=1;align=center;verticalAlign=middle;whiteSpace=wrap;rounded=0;textOpacity=70;" vertex="1" parent="DC3W0lL9P1rpQiNHEUN1-1">
          <mxGeometry x="225" y="150" width="145" height="30" as="geometry" />
        </mxCell>
        <mxCell id="DC3W0lL9P1rpQiNHEUN1-16" value="Level-0 DFD" style="swimlane;whiteSpace=wrap;html=1;" vertex="1" parent="1">
          <mxGeometry x="670" y="-1050" width="950" height="750" as="geometry" />
        </mxCell>
        <mxCell id="DC3W0lL9P1rpQiNHEUN1-17" value="&lt;div&gt;Package&lt;/div&gt;&lt;div&gt;publishers&lt;/div&gt;" style="rounded=0;whiteSpace=wrap;html=1;fillColor=#e1d5e7;strokeColor=#9673a6;" vertex="1" parent="DC3W0lL9P1rpQiNHEUN1-16">
          <mxGeometry x="30" y="170" width="120" height="60" as="geometry" />
        </mxCell>
        <mxCell id="DC3W0lL9P1rpQiNHEUN1-18" value="End users" style="rounded=0;whiteSpace=wrap;html=1;fillColor=#d5e8d4;strokeColor=#82b366;" vertex="1" parent="DC3W0lL9P1rpQiNHEUN1-16">
          <mxGeometry x="190" y="620" width="120" height="60" as="geometry" />
        </mxCell>
        <mxCell id="DC3W0lL9P1rpQiNHEUN1-19" value="Administrators / Service staff / Technical support / Moderation" style="rounded=0;whiteSpace=wrap;html=1;fillColor=#dae8fc;strokeColor=#6c8ebf;" vertex="1" parent="DC3W0lL9P1rpQiNHEUN1-16">
          <mxGeometry x="530" y="620" width="120" height="60" as="geometry" />
        </mxCell>
        <mxCell id="DC3W0lL9P1rpQiNHEUN1-20" value="" style="endArrow=classic;html=1;rounded=0;exitX=1;exitY=0.5;exitDx=0;exitDy=0;entryX=0;entryY=0.5;entryDx=0;entryDy=0;" edge="1" parent="DC3W0lL9P1rpQiNHEUN1-16" source="DC3W0lL9P1rpQiNHEUN1-17" target="DC3W0lL9P1rpQiNHEUN1-26">
          <mxGeometry width="50" height="50" relative="1" as="geometry">
            <mxPoint x="240" y="195" as="sourcePoint" />
            <mxPoint x="420" y="200" as="targetPoint" />
          </mxGeometry>
        </mxCell>
        <mxCell id="DC3W0lL9P1rpQiNHEUN1-21" value="requests" style="edgeLabel;html=1;align=center;verticalAlign=middle;resizable=0;points=[];" vertex="1" connectable="0" parent="DC3W0lL9P1rpQiNHEUN1-20">
          <mxGeometry x="0.0245" relative="1" as="geometry">
            <mxPoint as="offset" />
          </mxGeometry>
        </mxCell>
        <mxCell id="DC3W0lL9P1rpQiNHEUN1-22" value="" style="endArrow=classic;html=1;rounded=0;entryX=1;entryY=1;entryDx=0;entryDy=0;exitX=0.022;exitY=0.611;exitDx=0;exitDy=0;exitPerimeter=0;" edge="1" parent="DC3W0lL9P1rpQiNHEUN1-16" source="DC3W0lL9P1rpQiNHEUN1-26" target="DC3W0lL9P1rpQiNHEUN1-17">
          <mxGeometry width="50" height="50" relative="1" as="geometry">
            <mxPoint x="421.03999999999996" y="230.16000000000008" as="sourcePoint" />
            <mxPoint x="250" y="290" as="targetPoint" />
          </mxGeometry>
        </mxCell>
        <mxCell id="DC3W0lL9P1rpQiNHEUN1-23" value="responses" style="edgeLabel;html=1;align=center;verticalAlign=middle;resizable=0;points=[];" vertex="1" connectable="0" parent="DC3W0lL9P1rpQiNHEUN1-22">
          <mxGeometry x="-0.0473" relative="1" as="geometry">
            <mxPoint as="offset" />
          </mxGeometry>
        </mxCell>
        <mxCell id="DC3W0lL9P1rpQiNHEUN1-24" value="&lt;ul&gt;&lt;li&gt;Everything that &quot;end users&quot; can do&lt;/li&gt;&lt;li&gt;Managing their own packages (CRUD): upload/publish, delete, update, download metadata and data (source / built distributions)&lt;/li&gt;&lt;/ul&gt;" style="text;rotation=0;align=left;html=1;whiteSpace=wrap;" vertex="1" parent="DC3W0lL9P1rpQiNHEUN1-16">
          <mxGeometry x="250" y="70" width="229.57" height="121.22" as="geometry" />
        </mxCell>
        <mxCell id="DC3W0lL9P1rpQiNHEUN1-25" value="&lt;ul&gt;&lt;li&gt;Confirmation/denial, processing, error messages, state regarding a package or any changes.&lt;/li&gt;&lt;/ul&gt;" style="text;rotation=0;align=left;html=1;whiteSpace=wrap;" vertex="1" parent="DC3W0lL9P1rpQiNHEUN1-16">
          <mxGeometry x="250" y="246" width="229.57" height="90.82" as="geometry" />
        </mxCell>
        <mxCell id="DC3W0lL9P1rpQiNHEUN1-26" value="&lt;div&gt;PyPI&lt;/div&gt;&lt;div&gt;platform&lt;/div&gt;&lt;div&gt;and related&lt;/div&gt;&lt;div&gt;services&lt;/div&gt;" style="ellipse;shape=doubleEllipse;whiteSpace=wrap;html=1;aspect=fixed;" vertex="1" parent="DC3W0lL9P1rpQiNHEUN1-16">
          <mxGeometry x="585" y="70" width="260" height="260" as="geometry" />
        </mxCell>
        <mxCell id="DC3W0lL9P1rpQiNHEUN1-27" value="" style="endArrow=classic;startArrow=classic;html=1;rounded=0;exitX=0.5;exitY=0;exitDx=0;exitDy=0;entryX=0.5;entryY=1;entryDx=0;entryDy=0;" edge="1" parent="DC3W0lL9P1rpQiNHEUN1-16" source="DC3W0lL9P1rpQiNHEUN1-18" target="DC3W0lL9P1rpQiNHEUN1-26">
          <mxGeometry width="50" height="50" relative="1" as="geometry">
            <mxPoint x="380" y="444.5" as="sourcePoint" />
            <mxPoint x="522" y="444.5" as="targetPoint" />
          </mxGeometry>
        </mxCell>
        <mxCell id="DC3W0lL9P1rpQiNHEUN1-28" value="&lt;div&gt;requests /&lt;/div&gt;&lt;div&gt;responses&lt;/div&gt;" style="edgeLabel;html=1;align=center;verticalAlign=middle;resizable=0;points=[];" vertex="1" connectable="0" parent="DC3W0lL9P1rpQiNHEUN1-27">
          <mxGeometry x="0.0499" y="2" relative="1" as="geometry">
            <mxPoint as="offset" />
          </mxGeometry>
        </mxCell>
        <mxCell id="DC3W0lL9P1rpQiNHEUN1-29" value="" style="endArrow=classic;startArrow=classic;html=1;rounded=0;exitX=0.5;exitY=0;exitDx=0;exitDy=0;entryX=0.5;entryY=1;entryDx=0;entryDy=0;" edge="1" parent="DC3W0lL9P1rpQiNHEUN1-16" source="DC3W0lL9P1rpQiNHEUN1-19" target="DC3W0lL9P1rpQiNHEUN1-26">
          <mxGeometry width="50" height="50" relative="1" as="geometry">
            <mxPoint x="560" y="600" as="sourcePoint" />
            <mxPoint x="935" y="420" as="targetPoint" />
          </mxGeometry>
        </mxCell>
        <mxCell id="DC3W0lL9P1rpQiNHEUN1-30" value="&lt;div&gt;requests /&lt;/div&gt;&lt;div&gt;responses&lt;/div&gt;" style="edgeLabel;html=1;align=center;verticalAlign=middle;resizable=0;points=[];" vertex="1" connectable="0" parent="DC3W0lL9P1rpQiNHEUN1-29">
          <mxGeometry x="0.0499" y="2" relative="1" as="geometry">
            <mxPoint as="offset" />
          </mxGeometry>
        </mxCell>
        <mxCell id="DC3W0lL9P1rpQiNHEUN1-31" value="&lt;ul&gt;&lt;li&gt;Everything that &quot;end users&quot; and &quot;package publishes&quot; can do&lt;/li&gt;&lt;li&gt;Managing every package&lt;/li&gt;&lt;li&gt;Managing other users (ban, edit, etc.)&lt;/li&gt;&lt;li&gt;Managing system itself (updates, maintenance, etc.)&lt;/li&gt;&lt;/ul&gt;" style="text;rotation=0;align=left;html=1;whiteSpace=wrap;" vertex="1" parent="DC3W0lL9P1rpQiNHEUN1-16">
          <mxGeometry x="690" y="418.78" width="240" height="141.22" as="geometry" />
        </mxCell>
        <mxCell id="DC3W0lL9P1rpQiNHEUN1-32" value="&lt;ul&gt;&lt;li&gt;Downloading packages (metadata and data)&lt;/li&gt;&lt;li&gt;Message to technical support / moderation (reporting untrusted or suspicious packages) and other users&lt;/li&gt;&lt;li&gt;Search for packages&lt;/li&gt;&lt;li&gt;Rate / comment packages&lt;/li&gt;&lt;li&gt;Register account / Login to system&lt;/li&gt;&lt;/ul&gt;" style="text;rotation=0;align=left;html=1;whiteSpace=wrap;" vertex="1" parent="DC3W0lL9P1rpQiNHEUN1-16">
          <mxGeometry x="100" y="380" width="260" height="160" as="geometry" />
        </mxCell>
        <mxCell id="DC3W0lL9P1rpQiNHEUN1-33" value="Level-1 DFD" style="swimlane;whiteSpace=wrap;html=1;" vertex="1" parent="1">
          <mxGeometry x="40" y="-260" width="1580" height="1560" as="geometry" />
        </mxCell>
        <mxCell id="DC3W0lL9P1rpQiNHEUN1-34" value="Interaction interfaces with platform" style="swimlane;whiteSpace=wrap;html=1;" vertex="1" parent="DC3W0lL9P1rpQiNHEUN1-33">
          <mxGeometry x="30" y="50" width="1520" height="720" as="geometry">
            <mxRectangle x="30" y="50" width="220" height="30" as="alternateBounds" />
          </mxGeometry>
        </mxCell>
        <mxCell id="DC3W0lL9P1rpQiNHEUN1-35" value="PyPI infrastructure" style="html=1;fontColor=#FF3333;fontStyle=1;align=left;verticalAlign=top;spacing=0;labelBorderColor=none;fillColor=none;dashed=1;strokeWidth=2;strokeColor=#FF3333;spacingLeft=4;spacingTop=-3;" vertex="1" parent="DC3W0lL9P1rpQiNHEUN1-34">
          <mxGeometry x="756" y="50" width="724" height="310" as="geometry" />
        </mxCell>
        <mxCell id="DC3W0lL9P1rpQiNHEUN1-36" value="&lt;div&gt;Buffer zone / DMZ&lt;/div&gt;&lt;div&gt;to internal&lt;/div&gt;&lt;div&gt;infrastructure&lt;/div&gt;" style="shape=requiredInterface;html=1;verticalLabelPosition=bottom;dashed=1;strokeColor=#FF3333;strokeWidth=2;fillColor=none;fontColor=#FF3333;align=center;verticalAlign=top;labelPosition=center;rotation=-50;" vertex="1" parent="DC3W0lL9P1rpQiNHEUN1-34">
          <mxGeometry x="1012.51" y="168.75" width="40" height="133" as="geometry" />
        </mxCell>
        <mxCell id="DC3W0lL9P1rpQiNHEUN1-37" style="edgeStyle=orthogonalEdgeStyle;rounded=0;orthogonalLoop=1;jettySize=auto;html=1;" edge="1" parent="DC3W0lL9P1rpQiNHEUN1-34" source="DC3W0lL9P1rpQiNHEUN1-38">
          <mxGeometry relative="1" as="geometry">
            <mxPoint x="190" y="180.00000000000023" as="targetPoint" />
          </mxGeometry>
        </mxCell>
        <mxCell id="DC3W0lL9P1rpQiNHEUN1-38" value="End users" style="rounded=0;whiteSpace=wrap;html=1;fillColor=#d5e8d4;strokeColor=#82b366;" vertex="1" parent="DC3W0lL9P1rpQiNHEUN1-34">
          <mxGeometry x="30" y="150" width="120" height="60" as="geometry" />
        </mxCell>
        <mxCell id="DC3W0lL9P1rpQiNHEUN1-39" style="edgeStyle=orthogonalEdgeStyle;rounded=0;orthogonalLoop=1;jettySize=auto;html=1;" edge="1" parent="DC3W0lL9P1rpQiNHEUN1-34" source="DC3W0lL9P1rpQiNHEUN1-40">
          <mxGeometry relative="1" as="geometry">
            <mxPoint x="190.0000000000001" y="84" as="targetPoint" />
          </mxGeometry>
        </mxCell>
        <mxCell id="DC3W0lL9P1rpQiNHEUN1-40" value="&lt;div&gt;Package&lt;/div&gt;&lt;div&gt;publishers&lt;/div&gt;" style="rounded=0;whiteSpace=wrap;html=1;fillColor=#e1d5e7;strokeColor=#9673a6;" vertex="1" parent="DC3W0lL9P1rpQiNHEUN1-34">
          <mxGeometry x="30" y="54" width="120" height="60" as="geometry" />
        </mxCell>
        <mxCell id="DC3W0lL9P1rpQiNHEUN1-41" value="Internet / Web" style="shape=requiredInterface;html=1;verticalLabelPosition=bottom;dashed=1;strokeColor=#FF3333;strokeWidth=2;fillColor=none;fontColor=#FF3333;align=center;verticalAlign=top;labelPosition=center;" vertex="1" parent="DC3W0lL9P1rpQiNHEUN1-34">
          <mxGeometry x="520" y="70" width="40" height="330" as="geometry" />
        </mxCell>
        <mxCell id="DC3W0lL9P1rpQiNHEUN1-42" value="&lt;div&gt;DNS&lt;/div&gt;" style="ellipse;whiteSpace=wrap;html=1;aspect=fixed;" vertex="1" parent="DC3W0lL9P1rpQiNHEUN1-34">
          <mxGeometry x="786" y="130" width="80" height="80" as="geometry" />
        </mxCell>
        <mxCell id="DC3W0lL9P1rpQiNHEUN1-43" value="&lt;div&gt;Firewall&lt;/div&gt;" style="ellipse;whiteSpace=wrap;html=1;aspect=fixed;" vertex="1" parent="DC3W0lL9P1rpQiNHEUN1-34">
          <mxGeometry x="976" y="240" width="80" height="80" as="geometry" />
        </mxCell>
        <mxCell id="DC3W0lL9P1rpQiNHEUN1-44" value="" style="endArrow=classic;html=1;rounded=0;exitX=1;exitY=0.5;exitDx=0;exitDy=0;entryX=0;entryY=0.5;entryDx=0;entryDy=0;" edge="1" parent="DC3W0lL9P1rpQiNHEUN1-34" source="DC3W0lL9P1rpQiNHEUN1-42" target="DC3W0lL9P1rpQiNHEUN1-43">
          <mxGeometry width="50" height="50" relative="1" as="geometry">
            <mxPoint x="1176" y="110" as="sourcePoint" />
            <mxPoint x="1226" y="60" as="targetPoint" />
          </mxGeometry>
        </mxCell>
        <mxCell id="DC3W0lL9P1rpQiNHEUN1-45" value="&lt;div&gt;Send packet&lt;/div&gt;&lt;div&gt;to validation&lt;/div&gt;&lt;div&gt;(IP, user-agent,&lt;/div&gt;&lt;div&gt;etc.)&lt;/div&gt;" style="edgeLabel;html=1;align=center;verticalAlign=middle;resizable=0;points=[];" vertex="1" connectable="0" parent="DC3W0lL9P1rpQiNHEUN1-44">
          <mxGeometry x="0.0474" y="-2" relative="1" as="geometry">
            <mxPoint as="offset" />
          </mxGeometry>
        </mxCell>
        <mxCell id="DC3W0lL9P1rpQiNHEUN1-46" value="" style="endArrow=classic;html=1;rounded=0;exitX=0.5;exitY=1;exitDx=0;exitDy=0;entryX=1;entryY=0.5;entryDx=0;entryDy=0;" edge="1" parent="DC3W0lL9P1rpQiNHEUN1-34" source="DC3W0lL9P1rpQiNHEUN1-43" target="DC3W0lL9P1rpQiNHEUN1-59">
          <mxGeometry width="50" height="50" relative="1" as="geometry">
            <mxPoint x="1106" y="110" as="sourcePoint" />
            <mxPoint x="866" y="380" as="targetPoint" />
          </mxGeometry>
        </mxCell>
        <mxCell id="DC3W0lL9P1rpQiNHEUN1-47" value="Drop requests" style="edgeLabel;html=1;align=center;verticalAlign=middle;resizable=0;points=[];" vertex="1" connectable="0" parent="DC3W0lL9P1rpQiNHEUN1-46">
          <mxGeometry x="-0.2623" y="-2" relative="1" as="geometry">
            <mxPoint x="1" as="offset" />
          </mxGeometry>
        </mxCell>
        <mxCell id="DC3W0lL9P1rpQiNHEUN1-48" value="" style="endArrow=classic;html=1;rounded=0;exitX=0.5;exitY=0;exitDx=0;exitDy=0;entryX=0;entryY=0.5;entryDx=0;entryDy=0;" edge="1" parent="DC3W0lL9P1rpQiNHEUN1-34" source="DC3W0lL9P1rpQiNHEUN1-43" target="DC3W0lL9P1rpQiNHEUN1-81">
          <mxGeometry width="50" height="50" relative="1" as="geometry">
            <mxPoint x="986" y="170" as="sourcePoint" />
            <mxPoint x="1036" y="120" as="targetPoint" />
          </mxGeometry>
        </mxCell>
        <mxCell id="DC3W0lL9P1rpQiNHEUN1-49" value="&lt;div&gt;Pass valid&lt;/div&gt;&lt;div&gt;requests&lt;/div&gt;" style="edgeLabel;html=1;align=center;verticalAlign=middle;resizable=0;points=[];" vertex="1" connectable="0" parent="DC3W0lL9P1rpQiNHEUN1-48">
          <mxGeometry x="0.0283" y="-1" relative="1" as="geometry">
            <mxPoint as="offset" />
          </mxGeometry>
        </mxCell>
        <mxCell id="DC3W0lL9P1rpQiNHEUN1-50" value="&lt;div&gt;Multiple clusters&lt;/div&gt;&lt;div&gt;of services / servers&lt;/div&gt;&lt;div&gt;instances&lt;/div&gt;&lt;div&gt;...&lt;/div&gt;" style="ellipse;shape=doubleEllipse;whiteSpace=wrap;html=1;aspect=fixed;" vertex="1" parent="DC3W0lL9P1rpQiNHEUN1-34">
          <mxGeometry x="1340" y="123" width="120" height="120" as="geometry" />
        </mxCell>
        <mxCell id="DC3W0lL9P1rpQiNHEUN1-51" value="" style="endArrow=classic;html=1;rounded=0;exitX=1;exitY=0.5;exitDx=0;exitDy=0;entryX=0;entryY=0.5;entryDx=0;entryDy=0;" edge="1" parent="DC3W0lL9P1rpQiNHEUN1-34" source="DC3W0lL9P1rpQiNHEUN1-81" target="DC3W0lL9P1rpQiNHEUN1-50">
          <mxGeometry width="50" height="50" relative="1" as="geometry">
            <mxPoint x="1326" y="20" as="sourcePoint" />
            <mxPoint x="1376" y="-30" as="targetPoint" />
          </mxGeometry>
        </mxCell>
        <mxCell id="DC3W0lL9P1rpQiNHEUN1-52" value="&lt;div&gt;Pass requests&lt;/div&gt;&lt;div&gt;to 1:n&lt;/div&gt;&lt;div&gt;of web servers /&lt;/div&gt;&lt;div&gt;application&lt;/div&gt;&lt;div&gt;services&lt;/div&gt;" style="edgeLabel;html=1;align=center;verticalAlign=middle;resizable=0;points=[];" vertex="1" connectable="0" parent="DC3W0lL9P1rpQiNHEUN1-51">
          <mxGeometry x="0.0024" y="-2" relative="1" as="geometry">
            <mxPoint as="offset" />
          </mxGeometry>
        </mxCell>
        <mxCell id="DC3W0lL9P1rpQiNHEUN1-53" style="edgeStyle=orthogonalEdgeStyle;rounded=0;orthogonalLoop=1;jettySize=auto;html=1;" edge="1" parent="DC3W0lL9P1rpQiNHEUN1-34" source="DC3W0lL9P1rpQiNHEUN1-54">
          <mxGeometry relative="1" as="geometry">
            <mxPoint x="190" y="273" as="targetPoint" />
          </mxGeometry>
        </mxCell>
        <mxCell id="DC3W0lL9P1rpQiNHEUN1-54" value="&lt;div&gt;Moderation&lt;/div&gt;&lt;div&gt;and technical&lt;/div&gt;&lt;div&gt;support&lt;/div&gt;" style="rounded=0;whiteSpace=wrap;html=1;fillColor=#dae8fc;strokeColor=#6c8ebf;" vertex="1" parent="DC3W0lL9P1rpQiNHEUN1-34">
          <mxGeometry x="30" y="243" width="120" height="60" as="geometry" />
        </mxCell>
        <mxCell id="DC3W0lL9P1rpQiNHEUN1-55" style="edgeStyle=orthogonalEdgeStyle;rounded=0;orthogonalLoop=1;jettySize=auto;html=1;" edge="1" parent="DC3W0lL9P1rpQiNHEUN1-34" source="DC3W0lL9P1rpQiNHEUN1-58">
          <mxGeometry relative="1" as="geometry">
            <mxPoint x="190" y="370" as="targetPoint" />
          </mxGeometry>
        </mxCell>
        <mxCell id="DC3W0lL9P1rpQiNHEUN1-56" style="edgeStyle=orthogonalEdgeStyle;rounded=0;orthogonalLoop=1;jettySize=auto;html=1;entryX=0;entryY=0.5;entryDx=0;entryDy=0;" edge="1" parent="DC3W0lL9P1rpQiNHEUN1-34" source="DC3W0lL9P1rpQiNHEUN1-58" target="DC3W0lL9P1rpQiNHEUN1-90">
          <mxGeometry relative="1" as="geometry">
            <Array as="points">
              <mxPoint x="90" y="645" />
            </Array>
          </mxGeometry>
        </mxCell>
        <mxCell id="DC3W0lL9P1rpQiNHEUN1-57" value="&lt;div&gt;unplanned modification&lt;/div&gt;&lt;div&gt;or debugging&lt;/div&gt;" style="edgeLabel;html=1;align=center;verticalAlign=middle;resizable=0;points=[];" vertex="1" connectable="0" parent="DC3W0lL9P1rpQiNHEUN1-56">
          <mxGeometry x="-0.3131" y="1" relative="1" as="geometry">
            <mxPoint as="offset" />
          </mxGeometry>
        </mxCell>
        <mxCell id="DC3W0lL9P1rpQiNHEUN1-58" value="Administrators and service staff" style="rounded=0;whiteSpace=wrap;html=1;fillColor=#dae8fc;strokeColor=#6c8ebf;" vertex="1" parent="DC3W0lL9P1rpQiNHEUN1-34">
          <mxGeometry x="30" y="340" width="120" height="60" as="geometry" />
        </mxCell>
        <mxCell id="DC3W0lL9P1rpQiNHEUN1-59" value="..." style="text;html=1;align=center;verticalAlign=middle;whiteSpace=wrap;rounded=0;" vertex="1" parent="DC3W0lL9P1rpQiNHEUN1-34">
          <mxGeometry x="830" y="370" width="60" height="30" as="geometry" />
        </mxCell>
        <mxCell id="DC3W0lL9P1rpQiNHEUN1-60" value="" style="endArrow=classic;html=1;fontColor=#FF3333;rounded=0;startArrow=classic;startFill=1;entryX=0;entryY=0.5;entryDx=0;entryDy=0;exitX=1;exitY=0.5;exitDx=0;exitDy=0;" edge="1" parent="DC3W0lL9P1rpQiNHEUN1-34" source="DC3W0lL9P1rpQiNHEUN1-68" target="DC3W0lL9P1rpQiNHEUN1-42">
          <mxGeometry width="50" height="50" relative="1" as="geometry">
            <mxPoint x="590" y="190" as="sourcePoint" />
            <mxPoint x="550" y="480" as="targetPoint" />
          </mxGeometry>
        </mxCell>
        <mxCell id="DC3W0lL9P1rpQiNHEUN1-61" value="&lt;div&gt;HTTP/HTTPS&lt;/div&gt;&lt;div&gt;requests / responses&lt;/div&gt;&lt;div&gt;with different data&lt;/div&gt;" style="edgeLabel;html=1;align=center;verticalAlign=middle;resizable=0;points=[];" vertex="1" connectable="0" parent="DC3W0lL9P1rpQiNHEUN1-60">
          <mxGeometry x="0.0524" y="2" relative="1" as="geometry">
            <mxPoint as="offset" />
          </mxGeometry>
        </mxCell>
        <mxCell id="DC3W0lL9P1rpQiNHEUN1-62" value="" style="endArrow=classic;html=1;rounded=0;startArrow=none;startFill=0;entryX=0;entryY=0.5;entryDx=0;entryDy=0;exitX=1;exitY=0.5;exitDx=0;exitDy=0;" edge="1" parent="DC3W0lL9P1rpQiNHEUN1-34" source="DC3W0lL9P1rpQiNHEUN1-97" target="DC3W0lL9P1rpQiNHEUN1-66">
          <mxGeometry width="50" height="50" relative="1" as="geometry">
            <mxPoint x="240" y="170" as="sourcePoint" />
            <mxPoint x="430" y="220" as="targetPoint" />
          </mxGeometry>
        </mxCell>
        <mxCell id="DC3W0lL9P1rpQiNHEUN1-63" value="&lt;div&gt;CLI command&lt;/div&gt;" style="edgeLabel;html=1;align=center;verticalAlign=middle;resizable=0;points=[];" vertex="1" connectable="0" parent="DC3W0lL9P1rpQiNHEUN1-62">
          <mxGeometry x="0.055" y="-3" relative="1" as="geometry">
            <mxPoint as="offset" />
          </mxGeometry>
        </mxCell>
        <mxCell id="DC3W0lL9P1rpQiNHEUN1-64" value="Browser" style="ellipse;whiteSpace=wrap;html=1;aspect=fixed;" vertex="1" parent="DC3W0lL9P1rpQiNHEUN1-34">
          <mxGeometry x="345" y="290" width="80" height="80" as="geometry" />
        </mxCell>
        <mxCell id="DC3W0lL9P1rpQiNHEUN1-65" value="" style="group" vertex="1" connectable="0" parent="DC3W0lL9P1rpQiNHEUN1-34">
          <mxGeometry x="315" y="88.75" width="80" height="80" as="geometry" />
        </mxCell>
        <mxCell id="DC3W0lL9P1rpQiNHEUN1-66" value="&lt;div&gt;Package&lt;/div&gt;&lt;div&gt;manager&lt;/div&gt;" style="ellipse;whiteSpace=wrap;html=1;aspect=fixed;" vertex="1" parent="DC3W0lL9P1rpQiNHEUN1-65">
          <mxGeometry width="80" height="80" as="geometry" />
        </mxCell>
        <mxCell id="DC3W0lL9P1rpQiNHEUN1-67" value="pip" style="text;html=1;strokeColor=#d6b656;fillColor=#fff2cc;align=center;verticalAlign=middle;whiteSpace=wrap;overflow=hidden;" vertex="1" parent="DC3W0lL9P1rpQiNHEUN1-65">
          <mxGeometry x="40" width="40" height="20" as="geometry" />
        </mxCell>
        <mxCell id="DC3W0lL9P1rpQiNHEUN1-68" value="&lt;div&gt;API&lt;/div&gt;&lt;div&gt;client&lt;/div&gt;" style="ellipse;whiteSpace=wrap;html=1;aspect=fixed;" vertex="1" parent="DC3W0lL9P1rpQiNHEUN1-34">
          <mxGeometry x="440" y="185.87" width="80" height="80" as="geometry" />
        </mxCell>
        <mxCell id="DC3W0lL9P1rpQiNHEUN1-69" value="" style="endArrow=classic;html=1;rounded=0;exitX=1;exitY=0.5;exitDx=0;exitDy=0;entryX=0.5;entryY=0;entryDx=0;entryDy=0;" edge="1" parent="DC3W0lL9P1rpQiNHEUN1-34" source="DC3W0lL9P1rpQiNHEUN1-66" target="DC3W0lL9P1rpQiNHEUN1-68">
          <mxGeometry width="50" height="50" relative="1" as="geometry">
            <mxPoint x="280" y="330" as="sourcePoint" />
            <mxPoint x="410" y="330" as="targetPoint" />
          </mxGeometry>
        </mxCell>
        <mxCell id="DC3W0lL9P1rpQiNHEUN1-70" value="&lt;div&gt;JSON&lt;/div&gt;&lt;div&gt;data&lt;/div&gt;" style="edgeLabel;html=1;align=center;verticalAlign=middle;resizable=0;points=[];" vertex="1" connectable="0" parent="DC3W0lL9P1rpQiNHEUN1-69">
          <mxGeometry x="-0.1622" y="-1" relative="1" as="geometry">
            <mxPoint as="offset" />
          </mxGeometry>
        </mxCell>
        <mxCell id="DC3W0lL9P1rpQiNHEUN1-71" value="" style="endArrow=classic;html=1;rounded=0;entryX=0;entryY=0.5;entryDx=0;entryDy=0;exitX=1;exitY=0.5;exitDx=0;exitDy=0;" edge="1" parent="DC3W0lL9P1rpQiNHEUN1-34" source="DC3W0lL9P1rpQiNHEUN1-97" target="DC3W0lL9P1rpQiNHEUN1-68">
          <mxGeometry width="50" height="50" relative="1" as="geometry">
            <mxPoint x="240" y="225" as="sourcePoint" />
            <mxPoint x="345" y="275" as="targetPoint" />
          </mxGeometry>
        </mxCell>
        <mxCell id="DC3W0lL9P1rpQiNHEUN1-72" value="&lt;div&gt;JSON&lt;/div&gt;&lt;div&gt;data&lt;/div&gt;" style="edgeLabel;html=1;align=center;verticalAlign=middle;resizable=0;points=[];" vertex="1" connectable="0" parent="DC3W0lL9P1rpQiNHEUN1-71">
          <mxGeometry x="-0.1622" y="-1" relative="1" as="geometry">
            <mxPoint x="18" y="-1" as="offset" />
          </mxGeometry>
        </mxCell>
        <mxCell id="DC3W0lL9P1rpQiNHEUN1-73" value="" style="endArrow=classic;html=1;fontColor=#FF3333;rounded=0;startArrow=classic;startFill=1;entryX=0;entryY=0.5;entryDx=0;entryDy=0;exitX=1;exitY=0.5;exitDx=0;exitDy=0;" edge="1" parent="DC3W0lL9P1rpQiNHEUN1-34" source="DC3W0lL9P1rpQiNHEUN1-75" target="DC3W0lL9P1rpQiNHEUN1-42">
          <mxGeometry width="50" height="50" relative="1" as="geometry">
            <mxPoint x="580" y="265" as="sourcePoint" />
            <mxPoint x="846" y="210" as="targetPoint" />
          </mxGeometry>
        </mxCell>
        <mxCell id="DC3W0lL9P1rpQiNHEUN1-74" value="&lt;div&gt;HTTP/HTTPS&lt;/div&gt;&lt;div&gt;requests / responses&lt;/div&gt;&lt;div&gt;with different data&lt;/div&gt;" style="edgeLabel;html=1;align=center;verticalAlign=middle;resizable=0;points=[];" vertex="1" connectable="0" parent="DC3W0lL9P1rpQiNHEUN1-73">
          <mxGeometry x="0.0524" y="2" relative="1" as="geometry">
            <mxPoint as="offset" />
          </mxGeometry>
        </mxCell>
        <mxCell id="DC3W0lL9P1rpQiNHEUN1-75" value="Web page" style="ellipse;whiteSpace=wrap;html=1;aspect=fixed;" vertex="1" parent="DC3W0lL9P1rpQiNHEUN1-34">
          <mxGeometry x="516" y="290" width="80" height="80" as="geometry" />
        </mxCell>
        <mxCell id="DC3W0lL9P1rpQiNHEUN1-76" value="" style="endArrow=classic;html=1;rounded=0;entryX=0;entryY=0.5;entryDx=0;entryDy=0;exitX=1;exitY=0.5;exitDx=0;exitDy=0;" edge="1" parent="DC3W0lL9P1rpQiNHEUN1-34" source="DC3W0lL9P1rpQiNHEUN1-64" target="DC3W0lL9P1rpQiNHEUN1-75">
          <mxGeometry width="50" height="50" relative="1" as="geometry">
            <mxPoint x="420" y="370" as="sourcePoint" />
            <mxPoint x="470" y="320" as="targetPoint" />
          </mxGeometry>
        </mxCell>
        <mxCell id="DC3W0lL9P1rpQiNHEUN1-77" value="&lt;div&gt;Text&lt;/div&gt;&lt;div&gt;and&lt;/div&gt;&lt;div&gt;different&lt;/div&gt;&lt;div&gt;data&lt;/div&gt;" style="edgeLabel;html=1;align=center;verticalAlign=middle;resizable=0;points=[];" vertex="1" connectable="0" parent="DC3W0lL9P1rpQiNHEUN1-76">
          <mxGeometry x="-0.0961" relative="1" as="geometry">
            <mxPoint as="offset" />
          </mxGeometry>
        </mxCell>
        <mxCell id="DC3W0lL9P1rpQiNHEUN1-78" value="" style="edgeStyle=orthogonalEdgeStyle;rounded=0;orthogonalLoop=1;jettySize=auto;html=1;exitX=0.5;exitY=1;exitDx=0;exitDy=0;" edge="1" parent="DC3W0lL9P1rpQiNHEUN1-34" source="DC3W0lL9P1rpQiNHEUN1-50" target="DC3W0lL9P1rpQiNHEUN1-80">
          <mxGeometry relative="1" as="geometry">
            <mxPoint x="1360" y="170" as="targetPoint" />
            <mxPoint x="1335" y="50" as="sourcePoint" />
            <Array as="points">
              <mxPoint x="1370" y="395" />
            </Array>
          </mxGeometry>
        </mxCell>
        <mxCell id="DC3W0lL9P1rpQiNHEUN1-79" value="&lt;div&gt;Return&lt;/div&gt;&lt;div&gt;responses&lt;/div&gt;&lt;div&gt;and make some&lt;/div&gt;&lt;div&gt;operations&lt;/div&gt;" style="edgeLabel;html=1;align=center;verticalAlign=middle;resizable=0;points=[];" vertex="1" connectable="0" parent="DC3W0lL9P1rpQiNHEUN1-78">
          <mxGeometry x="-0.2013" y="1" relative="1" as="geometry">
            <mxPoint as="offset" />
          </mxGeometry>
        </mxCell>
        <mxCell id="DC3W0lL9P1rpQiNHEUN1-80" value="..." style="text;html=1;align=center;verticalAlign=middle;whiteSpace=wrap;rounded=0;" vertex="1" parent="DC3W0lL9P1rpQiNHEUN1-34">
          <mxGeometry x="1370" y="380" width="60" height="30" as="geometry" />
        </mxCell>
        <mxCell id="DC3W0lL9P1rpQiNHEUN1-81" value="&lt;div&gt;Mirroring,&lt;/div&gt;&lt;div&gt;reverse proxies, load&lt;/div&gt;&lt;div&gt;balancers, CDN&lt;/div&gt;" style="ellipse;shape=doubleEllipse;whiteSpace=wrap;html=1;aspect=fixed;" vertex="1" parent="DC3W0lL9P1rpQiNHEUN1-34">
          <mxGeometry x="1100" y="80" width="120" height="120" as="geometry" />
        </mxCell>
        <mxCell id="DC3W0lL9P1rpQiNHEUN1-82" value="&lt;div&gt;VPN&lt;/div&gt;&lt;div&gt;client&lt;/div&gt;" style="ellipse;whiteSpace=wrap;html=1;aspect=fixed;" vertex="1" parent="DC3W0lL9P1rpQiNHEUN1-34">
          <mxGeometry x="596" y="547.5" width="80" height="80" as="geometry" />
        </mxCell>
        <mxCell id="DC3W0lL9P1rpQiNHEUN1-83" value="" style="endArrow=classic;html=1;rounded=0;exitX=1;exitY=0.5;exitDx=0;exitDy=0;entryX=0;entryY=0.5;entryDx=0;entryDy=0;" edge="1" parent="DC3W0lL9P1rpQiNHEUN1-34" source="DC3W0lL9P1rpQiNHEUN1-82" target="DC3W0lL9P1rpQiNHEUN1-85">
          <mxGeometry width="50" height="50" relative="1" as="geometry">
            <mxPoint x="610" y="537.5" as="sourcePoint" />
            <mxPoint x="880" y="587.5" as="targetPoint" />
          </mxGeometry>
        </mxCell>
        <mxCell id="DC3W0lL9P1rpQiNHEUN1-84" value="&lt;div&gt;established&lt;/div&gt;&lt;div&gt;tunnel connection and passing&lt;/div&gt;&lt;div&gt;&lt;div&gt;credentials, keys, configuration to&lt;/div&gt;&lt;div&gt;SSH client&lt;/div&gt;&lt;br&gt;&lt;/div&gt;" style="edgeLabel;html=1;align=center;verticalAlign=middle;resizable=0;points=[];" vertex="1" connectable="0" parent="DC3W0lL9P1rpQiNHEUN1-83">
          <mxGeometry x="0.0512" y="1" relative="1" as="geometry">
            <mxPoint x="-24" y="1" as="offset" />
          </mxGeometry>
        </mxCell>
        <mxCell id="DC3W0lL9P1rpQiNHEUN1-85" value="&lt;div&gt;SSH&lt;/div&gt;&lt;div&gt;client&lt;/div&gt;" style="ellipse;whiteSpace=wrap;html=1;aspect=fixed;" vertex="1" parent="DC3W0lL9P1rpQiNHEUN1-34">
          <mxGeometry x="1177.37" y="547.5" width="80" height="80" as="geometry" />
        </mxCell>
        <mxCell id="DC3W0lL9P1rpQiNHEUN1-86" value="&lt;div&gt;credentials&lt;/div&gt;&lt;div&gt;and VPN&lt;/div&gt;&lt;div&gt;configuration&lt;/div&gt;" style="text;whiteSpace=wrap;html=1;" vertex="1" parent="DC3W0lL9P1rpQiNHEUN1-34">
          <mxGeometry x="370" y="567.5" width="86" height="60" as="geometry" />
        </mxCell>
        <mxCell id="DC3W0lL9P1rpQiNHEUN1-87" value="or FTPS / SSH / SFTP / SCP / etc." style="text;whiteSpace=wrap;html=1;textOpacity=50;" vertex="1" parent="DC3W0lL9P1rpQiNHEUN1-34">
          <mxGeometry x="1167.9999999999998" y="632.5" width="98.75" height="40" as="geometry" />
        </mxCell>
        <mxCell id="DC3W0lL9P1rpQiNHEUN1-88" value="" style="endArrow=classic;html=1;rounded=0;entryX=0.636;entryY=1.003;entryDx=0;entryDy=0;entryPerimeter=0;exitX=0.5;exitY=0;exitDx=0;exitDy=0;" edge="1" parent="DC3W0lL9P1rpQiNHEUN1-34" source="DC3W0lL9P1rpQiNHEUN1-85" target="DC3W0lL9P1rpQiNHEUN1-35">
          <mxGeometry width="50" height="50" relative="1" as="geometry">
            <mxPoint x="520" y="430" as="sourcePoint" />
            <mxPoint x="570" y="380" as="targetPoint" />
          </mxGeometry>
        </mxCell>
        <mxCell id="DC3W0lL9P1rpQiNHEUN1-89" value="&lt;div&gt;established&lt;/div&gt;&lt;div&gt;connection&lt;/div&gt;&lt;div&gt;with remote resources&lt;/div&gt;&lt;div&gt;and apply/publish&lt;/div&gt;&lt;div&gt;necessary changes&lt;/div&gt;" style="edgeLabel;html=1;align=center;verticalAlign=middle;resizable=0;points=[];" vertex="1" connectable="0" parent="DC3W0lL9P1rpQiNHEUN1-88">
          <mxGeometry x="-0.1283" y="1" relative="1" as="geometry">
            <mxPoint x="5" y="-8" as="offset" />
          </mxGeometry>
        </mxCell>
        <mxCell id="DC3W0lL9P1rpQiNHEUN1-90" value="&lt;div&gt;manual&lt;/div&gt;&lt;div&gt;interaction&lt;/div&gt;" style="ellipse;whiteSpace=wrap;html=1;aspect=fixed;" vertex="1" parent="DC3W0lL9P1rpQiNHEUN1-34">
          <mxGeometry x="240" y="605" width="80" height="80" as="geometry" />
        </mxCell>
        <mxCell id="DC3W0lL9P1rpQiNHEUN1-91" value="&lt;div&gt;IaC tools or scripts with&lt;/div&gt;&lt;div&gt;CI/CD pipelines&lt;/div&gt;" style="ellipse;whiteSpace=wrap;html=1;aspect=fixed;" vertex="1" parent="DC3W0lL9P1rpQiNHEUN1-34">
          <mxGeometry x="240" y="510" width="80" height="80" as="geometry" />
        </mxCell>
        <mxCell id="DC3W0lL9P1rpQiNHEUN1-92" value="" style="endArrow=classic;html=1;rounded=0;exitX=0.5;exitY=1;exitDx=0;exitDy=0;entryX=0;entryY=0;entryDx=0;entryDy=0;" edge="1" parent="DC3W0lL9P1rpQiNHEUN1-34" source="DC3W0lL9P1rpQiNHEUN1-58" target="DC3W0lL9P1rpQiNHEUN1-91">
          <mxGeometry width="50" height="50" relative="1" as="geometry">
            <mxPoint x="450" y="440" as="sourcePoint" />
            <mxPoint x="500" y="390" as="targetPoint" />
          </mxGeometry>
        </mxCell>
        <mxCell id="DC3W0lL9P1rpQiNHEUN1-93" value="&lt;div&gt;pushing regular&lt;/div&gt;&lt;div&gt;changes to&lt;/div&gt;&lt;div&gt;version control&lt;/div&gt;&lt;div&gt;repository or&lt;/div&gt;&lt;div&gt;triggering automatic&lt;/div&gt;&lt;div&gt;scripts&lt;/div&gt;" style="edgeLabel;html=1;align=center;verticalAlign=middle;resizable=0;points=[];" vertex="1" connectable="0" parent="DC3W0lL9P1rpQiNHEUN1-92">
          <mxGeometry x="0.0101" y="1" relative="1" as="geometry">
            <mxPoint as="offset" />
          </mxGeometry>
        </mxCell>
        <mxCell id="DC3W0lL9P1rpQiNHEUN1-94" value="" style="endArrow=classic;html=1;rounded=0;exitX=1;exitY=0.5;exitDx=0;exitDy=0;entryX=0;entryY=0.5;entryDx=0;entryDy=0;" edge="1" parent="DC3W0lL9P1rpQiNHEUN1-34" source="DC3W0lL9P1rpQiNHEUN1-91" target="DC3W0lL9P1rpQiNHEUN1-82">
          <mxGeometry width="50" height="50" relative="1" as="geometry">
            <mxPoint x="1040" y="390" as="sourcePoint" />
            <mxPoint x="1090" y="340" as="targetPoint" />
          </mxGeometry>
        </mxCell>
        <mxCell id="DC3W0lL9P1rpQiNHEUN1-95" value="" style="endArrow=classic;html=1;rounded=0;exitX=1;exitY=0.5;exitDx=0;exitDy=0;entryX=0;entryY=0.5;entryDx=0;entryDy=0;" edge="1" parent="DC3W0lL9P1rpQiNHEUN1-34" source="DC3W0lL9P1rpQiNHEUN1-90" target="DC3W0lL9P1rpQiNHEUN1-82">
          <mxGeometry width="50" height="50" relative="1" as="geometry">
            <mxPoint x="1040" y="390" as="sourcePoint" />
            <mxPoint x="1090" y="340" as="targetPoint" />
          </mxGeometry>
        </mxCell>
        <mxCell id="DC3W0lL9P1rpQiNHEUN1-96" value="VPN" style="shape=requiredInterface;html=1;verticalLabelPosition=bottom;dashed=1;strokeColor=#FF3333;strokeWidth=2;fillColor=none;fontColor=#FF3333;align=center;verticalAlign=top;labelPosition=center;rotation=0;flipV=0;flipH=1;direction=west;" vertex="1" parent="DC3W0lL9P1rpQiNHEUN1-34">
          <mxGeometry x="680" y="527.5" width="20" height="120" as="geometry" />
        </mxCell>
        <mxCell id="DC3W0lL9P1rpQiNHEUN1-97" value="&lt;div&gt;any one of them&lt;/div&gt;&lt;div&gt;can&lt;/div&gt;" style="rounded=0;whiteSpace=wrap;html=1;fillColor=#f5f5f5;fontColor=#333333;strokeColor=#666666;" vertex="1" parent="DC3W0lL9P1rpQiNHEUN1-34">
          <mxGeometry x="190" y="51.75" width="50" height="348.25" as="geometry" />
        </mxCell>
        <mxCell id="DC3W0lL9P1rpQiNHEUN1-98" value="" style="endArrow=classic;html=1;rounded=0;entryX=0;entryY=0.5;entryDx=0;entryDy=0;exitX=1;exitY=0.5;exitDx=0;exitDy=0;" edge="1" parent="DC3W0lL9P1rpQiNHEUN1-34" source="DC3W0lL9P1rpQiNHEUN1-97" target="DC3W0lL9P1rpQiNHEUN1-64">
          <mxGeometry width="50" height="50" relative="1" as="geometry">
            <mxPoint x="240" y="330" as="sourcePoint" />
            <mxPoint x="480" y="230" as="targetPoint" />
          </mxGeometry>
        </mxCell>
        <mxCell id="DC3W0lL9P1rpQiNHEUN1-99" value="URL" style="edgeLabel;html=1;align=center;verticalAlign=middle;resizable=0;points=[];" vertex="1" connectable="0" parent="DC3W0lL9P1rpQiNHEUN1-98">
          <mxGeometry x="-0.1622" y="-1" relative="1" as="geometry">
            <mxPoint x="14" y="10" as="offset" />
          </mxGeometry>
        </mxCell>
        <mxCell id="DC3W0lL9P1rpQiNHEUN1-100" value="General Logical DFD" style="swimlane;whiteSpace=wrap;html=1;" vertex="1" parent="DC3W0lL9P1rpQiNHEUN1-33">
          <mxGeometry x="30" y="800" width="790" height="720" as="geometry">
            <mxRectangle x="30" y="680" width="90" height="30" as="alternateBounds" />
          </mxGeometry>
        </mxCell>
        <mxCell id="DC3W0lL9P1rpQiNHEUN1-468" value="Feature: Reporting" style="swimlane;whiteSpace=wrap;html=1;" vertex="1" parent="DC3W0lL9P1rpQiNHEUN1-100">
          <mxGeometry x="20" y="50" width="750" height="300" as="geometry" />
        </mxCell>
        <mxCell id="DC3W0lL9P1rpQiNHEUN1-399" style="edgeStyle=orthogonalEdgeStyle;rounded=0;orthogonalLoop=1;jettySize=auto;html=1;entryX=0.985;entryY=0.663;entryDx=0;entryDy=0;entryPerimeter=0;" edge="1" parent="DC3W0lL9P1rpQiNHEUN1-468" source="DC3W0lL9P1rpQiNHEUN1-266" target="DC3W0lL9P1rpQiNHEUN1-112">
          <mxGeometry relative="1" as="geometry">
            <Array as="points">
              <mxPoint x="390" y="250" />
            </Array>
          </mxGeometry>
        </mxCell>
        <mxCell id="DC3W0lL9P1rpQiNHEUN1-400" value="&lt;div&gt;response&lt;/div&gt;&lt;div&gt;from process&lt;/div&gt;" style="edgeLabel;html=1;align=center;verticalAlign=middle;resizable=0;points=[];" vertex="1" connectable="0" parent="DC3W0lL9P1rpQiNHEUN1-399">
          <mxGeometry x="0.0664" relative="1" as="geometry">
            <mxPoint x="3" as="offset" />
          </mxGeometry>
        </mxCell>
        <mxCell id="DC3W0lL9P1rpQiNHEUN1-401" style="edgeStyle=orthogonalEdgeStyle;rounded=0;orthogonalLoop=1;jettySize=auto;html=1;entryX=-0.008;entryY=0.163;entryDx=0;entryDy=0;entryPerimeter=0;exitX=0.977;exitY=0.316;exitDx=0;exitDy=0;exitPerimeter=0;" edge="1" parent="DC3W0lL9P1rpQiNHEUN1-468" source="DC3W0lL9P1rpQiNHEUN1-266" target="DC3W0lL9P1rpQiNHEUN1-105">
          <mxGeometry relative="1" as="geometry">
            <mxPoint x="470" y="100" as="sourcePoint" />
            <mxPoint x="610" y="100" as="targetPoint" />
            <Array as="points">
              <mxPoint x="467" y="90" />
            </Array>
          </mxGeometry>
        </mxCell>
        <mxCell id="DC3W0lL9P1rpQiNHEUN1-402" value="&lt;div&gt;request&lt;/div&gt;&lt;div&gt;to entity&lt;/div&gt;" style="edgeLabel;html=1;align=center;verticalAlign=middle;resizable=0;points=[];" vertex="1" connectable="0" parent="DC3W0lL9P1rpQiNHEUN1-401">
          <mxGeometry x="-0.0753" relative="1" as="geometry">
            <mxPoint as="offset" />
          </mxGeometry>
        </mxCell>
        <mxCell id="DC3W0lL9P1rpQiNHEUN1-266" value="" style="ellipse;shape=doubleEllipse;whiteSpace=wrap;html=1;aspect=fixed;" vertex="1" parent="DC3W0lL9P1rpQiNHEUN1-468">
          <mxGeometry x="350" y="50" width="120" height="120" as="geometry" />
        </mxCell>
        <mxCell id="DC3W0lL9P1rpQiNHEUN1-105" value="&lt;div&gt;Moderation&lt;/div&gt;&lt;div&gt;and technical&lt;/div&gt;&lt;div&gt;support&lt;/div&gt;" style="rounded=0;whiteSpace=wrap;html=1;fillColor=#dae8fc;strokeColor=#6c8ebf;" vertex="1" parent="DC3W0lL9P1rpQiNHEUN1-468">
          <mxGeometry x="610" y="80" width="120" height="60" as="geometry" />
        </mxCell>
        <mxCell id="DC3W0lL9P1rpQiNHEUN1-329" style="edgeStyle=orthogonalEdgeStyle;rounded=0;orthogonalLoop=1;jettySize=auto;html=1;entryX=0.044;entryY=0.31;entryDx=0;entryDy=0;entryPerimeter=0;" edge="1" parent="DC3W0lL9P1rpQiNHEUN1-468" source="DC3W0lL9P1rpQiNHEUN1-110" target="DC3W0lL9P1rpQiNHEUN1-266">
          <mxGeometry relative="1" as="geometry">
            <Array as="points">
              <mxPoint x="250" y="90" />
              <mxPoint x="250" y="87" />
            </Array>
          </mxGeometry>
        </mxCell>
        <mxCell id="DC3W0lL9P1rpQiNHEUN1-330" value="&lt;div&gt;request&lt;/div&gt;&lt;div&gt;to process&lt;/div&gt;" style="edgeLabel;html=1;align=center;verticalAlign=middle;resizable=0;points=[];" vertex="1" connectable="0" parent="DC3W0lL9P1rpQiNHEUN1-329">
          <mxGeometry x="0.06" relative="1" as="geometry">
            <mxPoint x="-14" y="3" as="offset" />
          </mxGeometry>
        </mxCell>
        <mxCell id="DC3W0lL9P1rpQiNHEUN1-110" value="&lt;div&gt;Package&lt;/div&gt;&lt;div&gt;publishers&lt;/div&gt;" style="rounded=0;whiteSpace=wrap;html=1;fillColor=#e1d5e7;strokeColor=#9673a6;" vertex="1" parent="DC3W0lL9P1rpQiNHEUN1-468">
          <mxGeometry x="30" y="80" width="120" height="60" as="geometry" />
        </mxCell>
        <mxCell id="DC3W0lL9P1rpQiNHEUN1-112" value="End users" style="rounded=0;whiteSpace=wrap;html=1;fillColor=#d5e8d4;strokeColor=#82b366;" vertex="1" parent="DC3W0lL9P1rpQiNHEUN1-468">
          <mxGeometry x="30" y="209.99999999999994" width="120" height="60" as="geometry" />
        </mxCell>
        <mxCell id="DC3W0lL9P1rpQiNHEUN1-267" value="Reporting" style="swimlane;whiteSpace=wrap;html=1;fontSize=12;" vertex="1" collapsed="1" parent="DC3W0lL9P1rpQiNHEUN1-468">
          <mxGeometry x="365" y="95" width="90" height="30" as="geometry">
            <mxRectangle x="1710" y="1110" width="710" height="1020" as="alternateBounds" />
          </mxGeometry>
        </mxCell>
        <mxCell id="DC3W0lL9P1rpQiNHEUN1-268" value="&lt;div&gt;unclear part,&lt;/div&gt;&lt;div&gt;need revision&lt;/div&gt;" style="html=1;fontColor=#999999;fontStyle=1;align=left;verticalAlign=top;spacing=0;labelBorderColor=none;fillColor=none;dashed=1;strokeWidth=2;strokeColor=#999999;spacingLeft=4;spacingTop=-3;" vertex="1" parent="DC3W0lL9P1rpQiNHEUN1-267">
          <mxGeometry x="30" y="610" width="640" height="380" as="geometry" />
        </mxCell>
        <mxCell id="DC3W0lL9P1rpQiNHEUN1-269" value="&lt;div&gt;Tickets&lt;/div&gt;&lt;div&gt;records&lt;/div&gt;" style="shape=partialRectangle;whiteSpace=wrap;html=1;left=0;right=0;fillColor=none;" vertex="1" parent="DC3W0lL9P1rpQiNHEUN1-267">
          <mxGeometry x="540" y="330.00000000000006" width="120" height="80" as="geometry" />
        </mxCell>
        <mxCell id="DC3W0lL9P1rpQiNHEUN1-270" style="edgeStyle=orthogonalEdgeStyle;rounded=0;orthogonalLoop=1;jettySize=auto;html=1;entryX=1;entryY=0.5;entryDx=0;entryDy=0;" edge="1" parent="DC3W0lL9P1rpQiNHEUN1-267" source="DC3W0lL9P1rpQiNHEUN1-277" target="DC3W0lL9P1rpQiNHEUN1-292">
          <mxGeometry relative="1" as="geometry" />
        </mxCell>
        <mxCell id="DC3W0lL9P1rpQiNHEUN1-271" value="&lt;div&gt;error&lt;/div&gt;&lt;div&gt;response&lt;/div&gt;" style="edgeLabel;html=1;align=center;verticalAlign=middle;resizable=0;points=[];" vertex="1" connectable="0" parent="DC3W0lL9P1rpQiNHEUN1-270">
          <mxGeometry x="-0.2105" y="-2" relative="1" as="geometry">
            <mxPoint as="offset" />
          </mxGeometry>
        </mxCell>
        <mxCell id="DC3W0lL9P1rpQiNHEUN1-272" style="edgeStyle=orthogonalEdgeStyle;rounded=0;orthogonalLoop=1;jettySize=auto;html=1;entryX=0;entryY=0.25;entryDx=0;entryDy=0;exitX=1;exitY=0;exitDx=0;exitDy=0;" edge="1" parent="DC3W0lL9P1rpQiNHEUN1-267" source="DC3W0lL9P1rpQiNHEUN1-277" target="DC3W0lL9P1rpQiNHEUN1-269">
          <mxGeometry relative="1" as="geometry">
            <Array as="points">
              <mxPoint x="288" y="350" />
            </Array>
          </mxGeometry>
        </mxCell>
        <mxCell id="DC3W0lL9P1rpQiNHEUN1-273" value="user" style="edgeLabel;html=1;align=center;verticalAlign=middle;resizable=0;points=[];" vertex="1" connectable="0" parent="DC3W0lL9P1rpQiNHEUN1-272">
          <mxGeometry x="0.0524" y="1" relative="1" as="geometry">
            <mxPoint x="-6" y="1" as="offset" />
          </mxGeometry>
        </mxCell>
        <mxCell id="DC3W0lL9P1rpQiNHEUN1-274" value="&lt;div&gt;user_id/user_name/user_email&lt;/div&gt;&lt;div&gt;(some unique identifier)&lt;/div&gt;" style="edgeLabel;html=1;align=center;verticalAlign=middle;resizable=0;points=[];" vertex="1" connectable="0" parent="DC3W0lL9P1rpQiNHEUN1-272">
          <mxGeometry x="0.0083" y="-2" relative="1" as="geometry">
            <mxPoint x="-4" as="offset" />
          </mxGeometry>
        </mxCell>
        <mxCell id="DC3W0lL9P1rpQiNHEUN1-275" style="edgeStyle=orthogonalEdgeStyle;rounded=0;orthogonalLoop=1;jettySize=auto;html=1;entryX=0.5;entryY=0;entryDx=0;entryDy=0;" edge="1" parent="DC3W0lL9P1rpQiNHEUN1-267" source="DC3W0lL9P1rpQiNHEUN1-277" target="DC3W0lL9P1rpQiNHEUN1-298">
          <mxGeometry relative="1" as="geometry" />
        </mxCell>
        <mxCell id="DC3W0lL9P1rpQiNHEUN1-276" value="&lt;div&gt;success&lt;/div&gt;&lt;div&gt;result&lt;/div&gt;" style="edgeLabel;html=1;align=center;verticalAlign=middle;resizable=0;points=[];" vertex="1" connectable="0" parent="DC3W0lL9P1rpQiNHEUN1-275">
          <mxGeometry x="0.1374" relative="1" as="geometry">
            <mxPoint as="offset" />
          </mxGeometry>
        </mxCell>
        <mxCell id="DC3W0lL9P1rpQiNHEUN1-277" value="&lt;div&gt;check if number of active/open tickets&lt;/div&gt;&lt;div&gt;related to user is more than N limit&lt;/div&gt;" style="ellipse;whiteSpace=wrap;html=1;aspect=fixed;fontSize=8;" vertex="1" parent="DC3W0lL9P1rpQiNHEUN1-267">
          <mxGeometry x="220" y="340" width="80" height="80" as="geometry" />
        </mxCell>
        <mxCell id="DC3W0lL9P1rpQiNHEUN1-278" style="edgeStyle=orthogonalEdgeStyle;rounded=0;orthogonalLoop=1;jettySize=auto;html=1;entryX=0;entryY=0.25;entryDx=0;entryDy=0;exitX=0.932;exitY=0.277;exitDx=0;exitDy=0;exitPerimeter=0;" edge="1" parent="DC3W0lL9P1rpQiNHEUN1-267" source="DC3W0lL9P1rpQiNHEUN1-284" target="DC3W0lL9P1rpQiNHEUN1-285">
          <mxGeometry relative="1" as="geometry" />
        </mxCell>
        <mxCell id="DC3W0lL9P1rpQiNHEUN1-279" value="&lt;div&gt;user_id/user_name/user_email&lt;/div&gt;&lt;div&gt;(some unique Identifier)&lt;/div&gt;" style="edgeLabel;html=1;align=center;verticalAlign=middle;resizable=0;points=[];" vertex="1" connectable="0" parent="DC3W0lL9P1rpQiNHEUN1-278">
          <mxGeometry x="-0.0278" relative="1" as="geometry">
            <mxPoint as="offset" />
          </mxGeometry>
        </mxCell>
        <mxCell id="DC3W0lL9P1rpQiNHEUN1-280" style="edgeStyle=orthogonalEdgeStyle;rounded=0;orthogonalLoop=1;jettySize=auto;html=1;entryX=0.5;entryY=0;entryDx=0;entryDy=0;" edge="1" parent="DC3W0lL9P1rpQiNHEUN1-267" source="DC3W0lL9P1rpQiNHEUN1-284" target="DC3W0lL9P1rpQiNHEUN1-277">
          <mxGeometry relative="1" as="geometry" />
        </mxCell>
        <mxCell id="DC3W0lL9P1rpQiNHEUN1-281" value="&lt;div&gt;success&lt;/div&gt;&lt;div&gt;result&lt;/div&gt;" style="edgeLabel;html=1;align=center;verticalAlign=middle;resizable=0;points=[];" vertex="1" connectable="0" parent="DC3W0lL9P1rpQiNHEUN1-280">
          <mxGeometry x="-0.1852" relative="1" as="geometry">
            <mxPoint y="8" as="offset" />
          </mxGeometry>
        </mxCell>
        <mxCell id="DC3W0lL9P1rpQiNHEUN1-282" style="edgeStyle=orthogonalEdgeStyle;rounded=0;orthogonalLoop=1;jettySize=auto;html=1;entryX=1;entryY=0.5;entryDx=0;entryDy=0;" edge="1" parent="DC3W0lL9P1rpQiNHEUN1-267" source="DC3W0lL9P1rpQiNHEUN1-284" target="DC3W0lL9P1rpQiNHEUN1-291">
          <mxGeometry relative="1" as="geometry">
            <mxPoint x="140" y="220" as="targetPoint" />
          </mxGeometry>
        </mxCell>
        <mxCell id="DC3W0lL9P1rpQiNHEUN1-283" value="&lt;div&gt;error&lt;/div&gt;&lt;div&gt;response&lt;/div&gt;" style="edgeLabel;html=1;align=center;verticalAlign=middle;resizable=0;points=[];" vertex="1" connectable="0" parent="DC3W0lL9P1rpQiNHEUN1-282">
          <mxGeometry x="-0.197" y="1" relative="1" as="geometry">
            <mxPoint as="offset" />
          </mxGeometry>
        </mxCell>
        <mxCell id="DC3W0lL9P1rpQiNHEUN1-284" value="&lt;div&gt;&lt;font style=&quot;font-size: 9px;&quot;&gt;check if user&lt;/font&gt;&lt;/div&gt;&lt;div&gt;&lt;font style=&quot;font-size: 9px;&quot;&gt;is not banned, deactivated,&lt;/font&gt;&lt;/div&gt;&lt;div&gt;&lt;font style=&quot;font-size: 9px;&quot;&gt;or muted for&lt;/font&gt;&lt;/div&gt;&lt;div&gt;&lt;font style=&quot;font-size: 9px;&quot;&gt;some time&lt;/font&gt;&lt;/div&gt;" style="ellipse;whiteSpace=wrap;html=1;aspect=fixed;" vertex="1" parent="DC3W0lL9P1rpQiNHEUN1-267">
          <mxGeometry x="220" y="180" width="80" height="80" as="geometry" />
        </mxCell>
        <mxCell id="DC3W0lL9P1rpQiNHEUN1-285" value="&lt;div&gt;Users records&lt;/div&gt;" style="shape=partialRectangle;whiteSpace=wrap;html=1;left=0;right=0;fillColor=none;" vertex="1" parent="DC3W0lL9P1rpQiNHEUN1-267">
          <mxGeometry x="540" y="180" width="120" height="80" as="geometry" />
        </mxCell>
        <mxCell id="DC3W0lL9P1rpQiNHEUN1-286" style="edgeStyle=orthogonalEdgeStyle;rounded=0;orthogonalLoop=1;jettySize=auto;html=1;exitX=0;exitY=0.75;exitDx=0;exitDy=0;entryX=0.908;entryY=0.756;entryDx=0;entryDy=0;entryPerimeter=0;" edge="1" parent="DC3W0lL9P1rpQiNHEUN1-267" source="DC3W0lL9P1rpQiNHEUN1-285" target="DC3W0lL9P1rpQiNHEUN1-284">
          <mxGeometry relative="1" as="geometry">
            <mxPoint x="520" y="270" as="sourcePoint" />
            <mxPoint x="330" y="270" as="targetPoint" />
            <Array as="points">
              <mxPoint x="308" y="240" />
            </Array>
          </mxGeometry>
        </mxCell>
        <mxCell id="DC3W0lL9P1rpQiNHEUN1-287" value="user_status" style="edgeLabel;html=1;align=center;verticalAlign=middle;resizable=0;points=[];" vertex="1" connectable="0" parent="DC3W0lL9P1rpQiNHEUN1-286">
          <mxGeometry x="0.0328" y="2" relative="1" as="geometry">
            <mxPoint as="offset" />
          </mxGeometry>
        </mxCell>
        <mxCell id="DC3W0lL9P1rpQiNHEUN1-288" style="edgeStyle=orthogonalEdgeStyle;rounded=0;orthogonalLoop=1;jettySize=auto;html=1;entryX=0.5;entryY=0;entryDx=0;entryDy=0;" edge="1" parent="DC3W0lL9P1rpQiNHEUN1-267" source="DC3W0lL9P1rpQiNHEUN1-290" target="DC3W0lL9P1rpQiNHEUN1-284">
          <mxGeometry relative="1" as="geometry" />
        </mxCell>
        <mxCell id="DC3W0lL9P1rpQiNHEUN1-289" value="&lt;b&gt;&lt;span style=&quot;color: light-dark(rgb(0, 0, 0), rgb(255, 0, 0));&quot;&gt;user_metadata, and other things&lt;/span&gt;&lt;/b&gt;" style="edgeLabel;html=1;align=center;verticalAlign=middle;resizable=0;points=[];" vertex="1" connectable="0" parent="DC3W0lL9P1rpQiNHEUN1-288">
          <mxGeometry x="-0.1371" relative="1" as="geometry">
            <mxPoint as="offset" />
          </mxGeometry>
        </mxCell>
        <mxCell id="DC3W0lL9P1rpQiNHEUN1-290" value="&lt;div&gt;input&lt;/div&gt;&lt;div&gt;from&lt;/div&gt;&lt;div&gt;end user&lt;/div&gt;" style="ellipse;whiteSpace=wrap;html=1;aspect=fixed;fillColor=#d5e8d4;strokeColor=#82b366;" vertex="1" parent="DC3W0lL9P1rpQiNHEUN1-267">
          <mxGeometry x="220" y="50" width="80" height="80" as="geometry" />
        </mxCell>
        <mxCell id="DC3W0lL9P1rpQiNHEUN1-291" value="&lt;div&gt;output&lt;/div&gt;&lt;div&gt;to end&lt;/div&gt;&lt;div&gt;user&lt;/div&gt;" style="ellipse;whiteSpace=wrap;html=1;aspect=fixed;fillColor=#d5e8d4;strokeColor=#82b366;" vertex="1" parent="DC3W0lL9P1rpQiNHEUN1-267">
          <mxGeometry x="40" y="180" width="80" height="80" as="geometry" />
        </mxCell>
        <mxCell id="DC3W0lL9P1rpQiNHEUN1-292" value="&lt;div&gt;output&lt;/div&gt;&lt;div&gt;to end&lt;/div&gt;&lt;div&gt;user&lt;/div&gt;" style="ellipse;whiteSpace=wrap;html=1;aspect=fixed;fillColor=#d5e8d4;strokeColor=#82b366;" vertex="1" parent="DC3W0lL9P1rpQiNHEUN1-267">
          <mxGeometry x="40" y="340" width="80" height="80" as="geometry" />
        </mxCell>
        <mxCell id="DC3W0lL9P1rpQiNHEUN1-293" style="edgeStyle=orthogonalEdgeStyle;rounded=0;orthogonalLoop=1;jettySize=auto;html=1;exitX=0;exitY=0.75;exitDx=0;exitDy=0;entryX=0.967;entryY=0.624;entryDx=0;entryDy=0;entryPerimeter=0;" edge="1" parent="DC3W0lL9P1rpQiNHEUN1-267" source="DC3W0lL9P1rpQiNHEUN1-269" target="DC3W0lL9P1rpQiNHEUN1-277">
          <mxGeometry relative="1" as="geometry">
            <mxPoint x="320" y="410" as="targetPoint" />
            <Array as="points" />
          </mxGeometry>
        </mxCell>
        <mxCell id="DC3W0lL9P1rpQiNHEUN1-294" value="&lt;div&gt;number of active tickets&lt;/div&gt;&lt;div&gt;related to user&lt;/div&gt;" style="edgeLabel;html=1;align=center;verticalAlign=middle;resizable=0;points=[];" vertex="1" connectable="0" parent="DC3W0lL9P1rpQiNHEUN1-293">
          <mxGeometry x="-0.021" relative="1" as="geometry">
            <mxPoint x="-10" as="offset" />
          </mxGeometry>
        </mxCell>
        <mxCell id="DC3W0lL9P1rpQiNHEUN1-295" value="if user_status == &quot;active&quot;" style="text;whiteSpace=wrap;html=1;textOpacity=60;fontSize=7;" vertex="1" parent="DC3W0lL9P1rpQiNHEUN1-267">
          <mxGeometry x="220" y="263" width="80" height="20" as="geometry" />
        </mxCell>
        <mxCell id="DC3W0lL9P1rpQiNHEUN1-296" style="edgeStyle=orthogonalEdgeStyle;rounded=0;orthogonalLoop=1;jettySize=auto;html=1;entryX=0.5;entryY=0;entryDx=0;entryDy=0;" edge="1" parent="DC3W0lL9P1rpQiNHEUN1-267" source="DC3W0lL9P1rpQiNHEUN1-298" target="DC3W0lL9P1rpQiNHEUN1-312">
          <mxGeometry relative="1" as="geometry">
            <mxPoint x="260" y="650" as="targetPoint" />
          </mxGeometry>
        </mxCell>
        <mxCell id="DC3W0lL9P1rpQiNHEUN1-297" value="&lt;div&gt;&lt;font style=&quot;font-size: 12px;&quot;&gt;wait for&lt;/font&gt;&lt;/div&gt;&lt;div&gt;&lt;font style=&quot;font-size: 12px;&quot;&gt;moderator&lt;/font&gt;&lt;/div&gt;&lt;div&gt;&lt;font style=&quot;font-size: 12px;&quot;&gt;response&lt;/font&gt;&lt;/div&gt;" style="edgeLabel;html=1;align=center;verticalAlign=middle;resizable=0;points=[];" vertex="1" connectable="0" parent="DC3W0lL9P1rpQiNHEUN1-296">
          <mxGeometry x="-0.0571" y="-1" relative="1" as="geometry">
            <mxPoint as="offset" />
          </mxGeometry>
        </mxCell>
        <mxCell id="DC3W0lL9P1rpQiNHEUN1-298" value="&lt;font style=&quot;font-size: 12px;&quot;&gt;create ticket/report&lt;/font&gt;" style="ellipse;whiteSpace=wrap;html=1;aspect=fixed;fontSize=8;" vertex="1" parent="DC3W0lL9P1rpQiNHEUN1-267">
          <mxGeometry x="220" y="500" width="80" height="80" as="geometry" />
        </mxCell>
        <mxCell id="DC3W0lL9P1rpQiNHEUN1-299" value="&lt;div&gt;if (sum_of_tickets + 1) &amp;lt; MAX_TICKETS_PER_USER&lt;/div&gt;" style="text;whiteSpace=wrap;html=1;textOpacity=60;fontSize=7;" vertex="1" parent="DC3W0lL9P1rpQiNHEUN1-267">
          <mxGeometry x="210" y="420" width="100" height="30" as="geometry" />
        </mxCell>
        <mxCell id="DC3W0lL9P1rpQiNHEUN1-300" value="&lt;div&gt;Tickets&lt;/div&gt;&lt;div&gt;records&lt;/div&gt;" style="shape=partialRectangle;whiteSpace=wrap;html=1;left=0;right=0;fillColor=none;" vertex="1" parent="DC3W0lL9P1rpQiNHEUN1-267">
          <mxGeometry x="540" y="500" width="120" height="80" as="geometry" />
        </mxCell>
        <mxCell id="DC3W0lL9P1rpQiNHEUN1-301" value="SELECT" style="text;html=1;align=center;verticalAlign=middle;whiteSpace=wrap;rounded=0;" vertex="1" parent="DC3W0lL9P1rpQiNHEUN1-267">
          <mxGeometry x="570" y="290" width="60" height="30" as="geometry" />
        </mxCell>
        <mxCell id="DC3W0lL9P1rpQiNHEUN1-302" value="SELECT" style="text;html=1;align=center;verticalAlign=middle;whiteSpace=wrap;rounded=0;" vertex="1" parent="DC3W0lL9P1rpQiNHEUN1-267">
          <mxGeometry x="570" y="140" width="60" height="30" as="geometry" />
        </mxCell>
        <mxCell id="DC3W0lL9P1rpQiNHEUN1-303" value="INSERT" style="text;html=1;align=center;verticalAlign=middle;whiteSpace=wrap;rounded=0;" vertex="1" parent="DC3W0lL9P1rpQiNHEUN1-267">
          <mxGeometry x="570" y="460" width="60" height="30" as="geometry" />
        </mxCell>
        <mxCell id="DC3W0lL9P1rpQiNHEUN1-304" style="edgeStyle=orthogonalEdgeStyle;rounded=0;orthogonalLoop=1;jettySize=auto;html=1;entryX=0;entryY=0.25;entryDx=0;entryDy=0;exitX=0.925;exitY=0.248;exitDx=0;exitDy=0;exitPerimeter=0;" edge="1" parent="DC3W0lL9P1rpQiNHEUN1-267" source="DC3W0lL9P1rpQiNHEUN1-298" target="DC3W0lL9P1rpQiNHEUN1-300">
          <mxGeometry relative="1" as="geometry">
            <mxPoint x="330" y="550" as="sourcePoint" />
            <mxPoint x="552" y="650" as="targetPoint" />
            <Array as="points">
              <mxPoint x="297" y="520" />
            </Array>
          </mxGeometry>
        </mxCell>
        <mxCell id="DC3W0lL9P1rpQiNHEUN1-305" value="&lt;div&gt;&lt;font style=&quot;font-size: 8px;&quot;&gt;ticket unique identifier,&lt;/font&gt;&lt;/div&gt;&lt;div&gt;&lt;font style=&quot;font-size: 8px;&quot;&gt;who created,&lt;/font&gt;&lt;/div&gt;&lt;div&gt;&lt;font style=&quot;font-size: 8px;&quot;&gt;title,&lt;/font&gt;&lt;/div&gt;&lt;div&gt;&lt;font style=&quot;font-size: 8px;&quot;&gt;topic (about user, published, package,&lt;/font&gt;&lt;/div&gt;&lt;div&gt;&lt;font style=&quot;font-size: 8px;&quot;&gt;technical issues, etc.),&lt;/font&gt;&lt;/div&gt;&lt;div&gt;&lt;font style=&quot;font-size: 8px;&quot;&gt;description with explanation and supply materials&amp;nbsp;&lt;/font&gt;&lt;/div&gt;&lt;div&gt;&lt;font style=&quot;font-size: 8px;&quot;&gt;&lt;br&gt;&lt;/font&gt;&lt;/div&gt;" style="edgeLabel;html=1;align=center;verticalAlign=middle;resizable=0;points=[];" vertex="1" connectable="0" parent="DC3W0lL9P1rpQiNHEUN1-304">
          <mxGeometry x="0.0524" y="1" relative="1" as="geometry">
            <mxPoint x="-9" y="-19" as="offset" />
          </mxGeometry>
        </mxCell>
        <mxCell id="DC3W0lL9P1rpQiNHEUN1-306" style="edgeStyle=orthogonalEdgeStyle;rounded=0;orthogonalLoop=1;jettySize=auto;html=1;entryX=0.935;entryY=0.795;entryDx=0;entryDy=0;entryPerimeter=0;" edge="1" parent="DC3W0lL9P1rpQiNHEUN1-267" source="DC3W0lL9P1rpQiNHEUN1-300" target="DC3W0lL9P1rpQiNHEUN1-298">
          <mxGeometry relative="1" as="geometry">
            <Array as="points">
              <mxPoint x="420" y="564" />
            </Array>
          </mxGeometry>
        </mxCell>
        <mxCell id="DC3W0lL9P1rpQiNHEUN1-307" value="&lt;div&gt;ticket record / ticket unique identifier&lt;/div&gt;&lt;div&gt;with ticket_status: pending&lt;/div&gt;" style="edgeLabel;html=1;align=center;verticalAlign=middle;resizable=0;points=[];" vertex="1" connectable="0" parent="DC3W0lL9P1rpQiNHEUN1-306">
          <mxGeometry x="-0.0179" y="2" relative="1" as="geometry">
            <mxPoint as="offset" />
          </mxGeometry>
        </mxCell>
        <mxCell id="DC3W0lL9P1rpQiNHEUN1-308" value="" style="endArrow=classic;html=1;rounded=0;exitX=0;exitY=0.5;exitDx=0;exitDy=0;entryX=1;entryY=0.5;entryDx=0;entryDy=0;" edge="1" parent="DC3W0lL9P1rpQiNHEUN1-267" source="DC3W0lL9P1rpQiNHEUN1-298" target="DC3W0lL9P1rpQiNHEUN1-320">
          <mxGeometry width="50" height="50" relative="1" as="geometry">
            <mxPoint x="350" y="530" as="sourcePoint" />
            <mxPoint x="400" y="480" as="targetPoint" />
          </mxGeometry>
        </mxCell>
        <mxCell id="DC3W0lL9P1rpQiNHEUN1-309" value="&lt;div&gt;&lt;font style=&quot;font-size: 8px;&quot;&gt;success&lt;/font&gt;&lt;/div&gt;&lt;div&gt;&lt;font style=&quot;font-size: 8px;&quot;&gt;result with&amp;nbsp;&lt;/font&gt;&lt;div&gt;&lt;font style=&quot;font-size: 8px;&quot;&gt;notification&lt;/font&gt;&lt;/div&gt;&lt;div&gt;&lt;font style=&quot;font-size: 8px;&quot;&gt;that ticket is&lt;/font&gt;&lt;/div&gt;&lt;div&gt;&lt;font style=&quot;font-size: 8px;&quot;&gt;opened&lt;/font&gt;&lt;/div&gt;&lt;/div&gt;" style="edgeLabel;html=1;align=center;verticalAlign=middle;resizable=0;points=[];" vertex="1" connectable="0" parent="DC3W0lL9P1rpQiNHEUN1-308">
          <mxGeometry x="-0.2429" y="1" relative="1" as="geometry">
            <mxPoint x="-7" y="-1" as="offset" />
          </mxGeometry>
        </mxCell>
        <mxCell id="DC3W0lL9P1rpQiNHEUN1-310" style="edgeStyle=orthogonalEdgeStyle;rounded=0;orthogonalLoop=1;jettySize=auto;html=1;entryX=0;entryY=0.5;entryDx=0;entryDy=0;" edge="1" parent="DC3W0lL9P1rpQiNHEUN1-267" source="DC3W0lL9P1rpQiNHEUN1-312" target="DC3W0lL9P1rpQiNHEUN1-316">
          <mxGeometry relative="1" as="geometry" />
        </mxCell>
        <mxCell id="DC3W0lL9P1rpQiNHEUN1-311" style="edgeStyle=orthogonalEdgeStyle;rounded=0;orthogonalLoop=1;jettySize=auto;html=1;entryX=0.5;entryY=0;entryDx=0;entryDy=0;" edge="1" parent="DC3W0lL9P1rpQiNHEUN1-267" source="DC3W0lL9P1rpQiNHEUN1-312" target="DC3W0lL9P1rpQiNHEUN1-314">
          <mxGeometry relative="1" as="geometry" />
        </mxCell>
        <mxCell id="DC3W0lL9P1rpQiNHEUN1-312" value="&lt;div&gt;chat like messaging&lt;/div&gt;&lt;div&gt;system in ticket&lt;/div&gt;" style="ellipse;whiteSpace=wrap;html=1;aspect=fixed;" vertex="1" parent="DC3W0lL9P1rpQiNHEUN1-267">
          <mxGeometry x="220" y="660" width="80" height="80" as="geometry" />
        </mxCell>
        <mxCell id="DC3W0lL9P1rpQiNHEUN1-313" style="edgeStyle=orthogonalEdgeStyle;rounded=0;orthogonalLoop=1;jettySize=auto;html=1;entryX=0;entryY=0.5;entryDx=0;entryDy=0;" edge="1" parent="DC3W0lL9P1rpQiNHEUN1-267" source="DC3W0lL9P1rpQiNHEUN1-314" target="DC3W0lL9P1rpQiNHEUN1-327">
          <mxGeometry relative="1" as="geometry" />
        </mxCell>
        <mxCell id="DC3W0lL9P1rpQiNHEUN1-314" value="ticket is resolved?" style="ellipse;whiteSpace=wrap;html=1;aspect=fixed;" vertex="1" parent="DC3W0lL9P1rpQiNHEUN1-267">
          <mxGeometry x="220" y="770" width="80" height="80" as="geometry" />
        </mxCell>
        <mxCell id="DC3W0lL9P1rpQiNHEUN1-315" style="edgeStyle=orthogonalEdgeStyle;rounded=0;orthogonalLoop=1;jettySize=auto;html=1;entryX=0;entryY=0.5;entryDx=0;entryDy=0;" edge="1" parent="DC3W0lL9P1rpQiNHEUN1-267" source="DC3W0lL9P1rpQiNHEUN1-316" target="DC3W0lL9P1rpQiNHEUN1-322">
          <mxGeometry relative="1" as="geometry" />
        </mxCell>
        <mxCell id="DC3W0lL9P1rpQiNHEUN1-316" value="&lt;div&gt;&lt;font style=&quot;font-size: 10px;&quot;&gt;if no additional&lt;/font&gt;&lt;/div&gt;&lt;div&gt;&lt;font style=&quot;font-size: 10px;&quot;&gt;response from&lt;/font&gt;&lt;/div&gt;&lt;div&gt;&lt;font style=&quot;font-size: 10px;&quot;&gt;user withing N days&lt;/font&gt;&lt;/div&gt;" style="ellipse;whiteSpace=wrap;html=1;aspect=fixed;" vertex="1" parent="DC3W0lL9P1rpQiNHEUN1-267">
          <mxGeometry x="387.5" y="660" width="80" height="80" as="geometry" />
        </mxCell>
        <mxCell id="DC3W0lL9P1rpQiNHEUN1-317" style="edgeStyle=orthogonalEdgeStyle;rounded=0;orthogonalLoop=1;jettySize=auto;html=1;entryX=0;entryY=0.5;entryDx=0;entryDy=0;" edge="1" parent="DC3W0lL9P1rpQiNHEUN1-267" source="DC3W0lL9P1rpQiNHEUN1-319" target="DC3W0lL9P1rpQiNHEUN1-312">
          <mxGeometry relative="1" as="geometry">
            <mxPoint x="220" y="690" as="targetPoint" />
          </mxGeometry>
        </mxCell>
        <mxCell id="DC3W0lL9P1rpQiNHEUN1-318" value="&lt;div&gt;response&lt;/div&gt;&lt;div&gt;with explanation&lt;/div&gt;&lt;div&gt;and giving&lt;/div&gt;&lt;div&gt;additional&lt;/div&gt;&lt;div&gt;questions&amp;nbsp;&lt;/div&gt;" style="edgeLabel;html=1;align=center;verticalAlign=middle;resizable=0;points=[];" vertex="1" connectable="0" parent="DC3W0lL9P1rpQiNHEUN1-317">
          <mxGeometry x="-0.0629" y="-1" relative="1" as="geometry">
            <mxPoint as="offset" />
          </mxGeometry>
        </mxCell>
        <mxCell id="DC3W0lL9P1rpQiNHEUN1-319" value="&lt;div&gt;input from&lt;/div&gt;&lt;div&gt;&lt;div&gt;moderation&lt;/div&gt;&lt;div&gt;and technical&lt;/div&gt;&lt;div&gt;support&lt;/div&gt;&lt;/div&gt;" style="ellipse;whiteSpace=wrap;html=1;aspect=fixed;fillColor=#dae8fc;strokeColor=#6c8ebf;" vertex="1" parent="DC3W0lL9P1rpQiNHEUN1-267">
          <mxGeometry x="40" y="660" width="80" height="80" as="geometry" />
        </mxCell>
        <mxCell id="DC3W0lL9P1rpQiNHEUN1-320" value="&lt;div&gt;output&lt;/div&gt;&lt;div&gt;to end&lt;/div&gt;&lt;div&gt;user&lt;/div&gt;" style="ellipse;whiteSpace=wrap;html=1;aspect=fixed;fillColor=#d5e8d4;strokeColor=#82b366;" vertex="1" parent="DC3W0lL9P1rpQiNHEUN1-267">
          <mxGeometry x="40" y="500" width="80" height="80" as="geometry" />
        </mxCell>
        <mxCell id="DC3W0lL9P1rpQiNHEUN1-321" style="edgeStyle=orthogonalEdgeStyle;rounded=0;orthogonalLoop=1;jettySize=auto;html=1;entryX=1;entryY=0.5;entryDx=0;entryDy=0;" edge="1" parent="DC3W0lL9P1rpQiNHEUN1-267" source="DC3W0lL9P1rpQiNHEUN1-322" target="DC3W0lL9P1rpQiNHEUN1-328">
          <mxGeometry relative="1" as="geometry">
            <Array as="points">
              <mxPoint x="660" y="700" />
              <mxPoint x="660" y="920" />
            </Array>
          </mxGeometry>
        </mxCell>
        <mxCell id="DC3W0lL9P1rpQiNHEUN1-322" value="&lt;div&gt;automatically&lt;/div&gt;&lt;div&gt;close ticket&lt;/div&gt;&lt;div&gt;and change its&lt;/div&gt;&lt;div&gt;status&lt;/div&gt;" style="ellipse;whiteSpace=wrap;html=1;aspect=fixed;" vertex="1" parent="DC3W0lL9P1rpQiNHEUN1-267">
          <mxGeometry x="560" y="660" width="80" height="80" as="geometry" />
        </mxCell>
        <mxCell id="DC3W0lL9P1rpQiNHEUN1-323" style="edgeStyle=orthogonalEdgeStyle;rounded=0;orthogonalLoop=1;jettySize=auto;html=1;entryX=1;entryY=0.5;entryDx=0;entryDy=0;exitX=1;exitY=0.5;exitDx=0;exitDy=0;" edge="1" parent="DC3W0lL9P1rpQiNHEUN1-267" source="DC3W0lL9P1rpQiNHEUN1-324" target="DC3W0lL9P1rpQiNHEUN1-328">
          <mxGeometry relative="1" as="geometry" />
        </mxCell>
        <mxCell id="DC3W0lL9P1rpQiNHEUN1-324" value="&lt;div&gt;manually&lt;/div&gt;&lt;div&gt;close&amp;nbsp;&lt;/div&gt;&lt;div&gt;ticket&lt;/div&gt;" style="ellipse;whiteSpace=wrap;html=1;aspect=fixed;" vertex="1" parent="DC3W0lL9P1rpQiNHEUN1-267">
          <mxGeometry x="560" y="770" width="80" height="80" as="geometry" />
        </mxCell>
        <mxCell id="DC3W0lL9P1rpQiNHEUN1-325" style="edgeStyle=orthogonalEdgeStyle;rounded=0;orthogonalLoop=1;jettySize=auto;html=1;entryX=1;entryY=1;entryDx=0;entryDy=0;exitX=1;exitY=0;exitDx=0;exitDy=0;" edge="1" parent="DC3W0lL9P1rpQiNHEUN1-267" source="DC3W0lL9P1rpQiNHEUN1-314" target="DC3W0lL9P1rpQiNHEUN1-312">
          <mxGeometry relative="1" as="geometry">
            <Array as="points">
              <mxPoint x="301" y="782" />
              <mxPoint x="301" y="728" />
            </Array>
          </mxGeometry>
        </mxCell>
        <mxCell id="DC3W0lL9P1rpQiNHEUN1-326" style="edgeStyle=orthogonalEdgeStyle;rounded=0;orthogonalLoop=1;jettySize=auto;html=1;entryX=0;entryY=0.5;entryDx=0;entryDy=0;" edge="1" parent="DC3W0lL9P1rpQiNHEUN1-267" source="DC3W0lL9P1rpQiNHEUN1-327" target="DC3W0lL9P1rpQiNHEUN1-324">
          <mxGeometry relative="1" as="geometry" />
        </mxCell>
        <mxCell id="DC3W0lL9P1rpQiNHEUN1-327" value="Measures or a decision from moderation" style="ellipse;whiteSpace=wrap;html=1;aspect=fixed;" vertex="1" parent="DC3W0lL9P1rpQiNHEUN1-267">
          <mxGeometry x="387.5" y="770" width="80" height="80" as="geometry" />
        </mxCell>
        <mxCell id="DC3W0lL9P1rpQiNHEUN1-328" value="&lt;div&gt;output&lt;/div&gt;&lt;div&gt;to end&lt;/div&gt;&lt;div&gt;user&lt;/div&gt;" style="ellipse;whiteSpace=wrap;html=1;aspect=fixed;fillColor=#d5e8d4;strokeColor=#82b366;" vertex="1" parent="DC3W0lL9P1rpQiNHEUN1-267">
          <mxGeometry x="560" y="880" width="80" height="80" as="geometry" />
        </mxCell>
        <mxCell id="DC3W0lL9P1rpQiNHEUN1-333" value="" style="endArrow=none;html=1;rounded=0;entryX=0.032;entryY=0.744;entryDx=0;entryDy=0;entryPerimeter=0;startArrow=classic;startFill=1;endFill=0;exitX=1;exitY=1;exitDx=0;exitDy=0;" edge="1" parent="DC3W0lL9P1rpQiNHEUN1-468">
          <mxGeometry width="50" height="50" relative="1" as="geometry">
            <mxPoint x="150" y="131" as="sourcePoint" />
            <mxPoint x="353.8399999999999" y="130.2800000000002" as="targetPoint" />
          </mxGeometry>
        </mxCell>
        <mxCell id="DC3W0lL9P1rpQiNHEUN1-334" value="&lt;div&gt;response&lt;/div&gt;&lt;div&gt;from process&lt;/div&gt;" style="edgeLabel;html=1;align=center;verticalAlign=middle;resizable=0;points=[];" vertex="1" connectable="0" parent="DC3W0lL9P1rpQiNHEUN1-333">
          <mxGeometry x="-0.067" relative="1" as="geometry">
            <mxPoint as="offset" />
          </mxGeometry>
        </mxCell>
        <mxCell id="DC3W0lL9P1rpQiNHEUN1-335" style="edgeStyle=orthogonalEdgeStyle;rounded=0;orthogonalLoop=1;jettySize=auto;html=1;exitX=1;exitY=0;exitDx=0;exitDy=0;" edge="1" parent="DC3W0lL9P1rpQiNHEUN1-468" source="DC3W0lL9P1rpQiNHEUN1-112">
          <mxGeometry relative="1" as="geometry">
            <mxPoint x="190" y="223" as="sourcePoint" />
            <mxPoint x="370" y="160" as="targetPoint" />
            <Array as="points">
              <mxPoint x="370" y="210" />
            </Array>
          </mxGeometry>
        </mxCell>
        <mxCell id="DC3W0lL9P1rpQiNHEUN1-336" value="&lt;div&gt;request&lt;/div&gt;&lt;div&gt;to process&lt;/div&gt;" style="edgeLabel;html=1;align=center;verticalAlign=middle;resizable=0;points=[];" vertex="1" connectable="0" parent="DC3W0lL9P1rpQiNHEUN1-335">
          <mxGeometry x="0.06" relative="1" as="geometry">
            <mxPoint x="-32" as="offset" />
          </mxGeometry>
        </mxCell>
        <mxCell id="DC3W0lL9P1rpQiNHEUN1-403" style="edgeStyle=orthogonalEdgeStyle;rounded=0;orthogonalLoop=1;jettySize=auto;html=1;entryX=0.983;entryY=0.667;entryDx=0;entryDy=0;entryPerimeter=0;exitX=-0.003;exitY=0.844;exitDx=0;exitDy=0;exitPerimeter=0;" edge="1" parent="DC3W0lL9P1rpQiNHEUN1-468" source="DC3W0lL9P1rpQiNHEUN1-105" target="DC3W0lL9P1rpQiNHEUN1-266">
          <mxGeometry relative="1" as="geometry">
            <mxPoint x="610" y="190" as="sourcePoint" />
            <Array as="points">
              <mxPoint x="480" y="131" />
              <mxPoint x="468" y="130" />
            </Array>
          </mxGeometry>
        </mxCell>
        <mxCell id="DC3W0lL9P1rpQiNHEUN1-466" value="&lt;div&gt;response&lt;/div&gt;&lt;div&gt;to process&lt;/div&gt;" style="edgeLabel;html=1;align=center;verticalAlign=middle;resizable=0;points=[];" vertex="1" connectable="0" parent="DC3W0lL9P1rpQiNHEUN1-403">
          <mxGeometry x="0.033" y="-1" relative="1" as="geometry">
            <mxPoint as="offset" />
          </mxGeometry>
        </mxCell>
        <mxCell id="DC3W0lL9P1rpQiNHEUN1-613" value="Feature: Packaging" style="swimlane;whiteSpace=wrap;html=1;" vertex="1" parent="DC3W0lL9P1rpQiNHEUN1-100">
          <mxGeometry x="20" y="370" width="750" height="300" as="geometry" />
        </mxCell>
        <mxCell id="DC3W0lL9P1rpQiNHEUN1-614" style="edgeStyle=orthogonalEdgeStyle;rounded=0;orthogonalLoop=1;jettySize=auto;html=1;entryX=0.985;entryY=0.663;entryDx=0;entryDy=0;entryPerimeter=0;" edge="1" parent="DC3W0lL9P1rpQiNHEUN1-613" source="DC3W0lL9P1rpQiNHEUN1-618" target="DC3W0lL9P1rpQiNHEUN1-623">
          <mxGeometry relative="1" as="geometry">
            <Array as="points">
              <mxPoint x="390" y="250" />
            </Array>
          </mxGeometry>
        </mxCell>
        <mxCell id="DC3W0lL9P1rpQiNHEUN1-615" value="&lt;div&gt;response&lt;/div&gt;&lt;div&gt;from process&lt;/div&gt;" style="edgeLabel;html=1;align=center;verticalAlign=middle;resizable=0;points=[];" vertex="1" connectable="0" parent="DC3W0lL9P1rpQiNHEUN1-614">
          <mxGeometry x="0.0664" relative="1" as="geometry">
            <mxPoint x="3" as="offset" />
          </mxGeometry>
        </mxCell>
        <mxCell id="DC3W0lL9P1rpQiNHEUN1-616" style="edgeStyle=orthogonalEdgeStyle;rounded=0;orthogonalLoop=1;jettySize=auto;html=1;entryX=-0.008;entryY=0.163;entryDx=0;entryDy=0;entryPerimeter=0;exitX=0.977;exitY=0.316;exitDx=0;exitDy=0;exitPerimeter=0;" edge="1" parent="DC3W0lL9P1rpQiNHEUN1-613" source="DC3W0lL9P1rpQiNHEUN1-618" target="DC3W0lL9P1rpQiNHEUN1-619">
          <mxGeometry relative="1" as="geometry">
            <mxPoint x="470" y="100" as="sourcePoint" />
            <mxPoint x="610" y="100" as="targetPoint" />
            <Array as="points">
              <mxPoint x="467" y="90" />
            </Array>
          </mxGeometry>
        </mxCell>
        <mxCell id="DC3W0lL9P1rpQiNHEUN1-617" value="&lt;div&gt;request&lt;/div&gt;&lt;div&gt;to entity&lt;/div&gt;" style="edgeLabel;html=1;align=center;verticalAlign=middle;resizable=0;points=[];" vertex="1" connectable="0" parent="DC3W0lL9P1rpQiNHEUN1-616">
          <mxGeometry x="-0.0753" relative="1" as="geometry">
            <mxPoint as="offset" />
          </mxGeometry>
        </mxCell>
        <mxCell id="DC3W0lL9P1rpQiNHEUN1-618" value="" style="ellipse;shape=doubleEllipse;whiteSpace=wrap;html=1;aspect=fixed;" vertex="1" parent="DC3W0lL9P1rpQiNHEUN1-613">
          <mxGeometry x="350" y="50" width="120" height="120" as="geometry" />
        </mxCell>
        <mxCell id="DC3W0lL9P1rpQiNHEUN1-619" value="&lt;div&gt;Moderation&lt;/div&gt;&lt;div&gt;and technical&lt;/div&gt;&lt;div&gt;support&lt;/div&gt;" style="rounded=0;whiteSpace=wrap;html=1;fillColor=#dae8fc;strokeColor=#6c8ebf;" vertex="1" parent="DC3W0lL9P1rpQiNHEUN1-613">
          <mxGeometry x="610" y="80" width="120" height="60" as="geometry" />
        </mxCell>
        <mxCell id="DC3W0lL9P1rpQiNHEUN1-620" style="edgeStyle=orthogonalEdgeStyle;rounded=0;orthogonalLoop=1;jettySize=auto;html=1;entryX=0.044;entryY=0.31;entryDx=0;entryDy=0;entryPerimeter=0;" edge="1" parent="DC3W0lL9P1rpQiNHEUN1-613" source="DC3W0lL9P1rpQiNHEUN1-622" target="DC3W0lL9P1rpQiNHEUN1-618">
          <mxGeometry relative="1" as="geometry">
            <Array as="points">
              <mxPoint x="250" y="90" />
              <mxPoint x="250" y="87" />
            </Array>
          </mxGeometry>
        </mxCell>
        <mxCell id="DC3W0lL9P1rpQiNHEUN1-621" value="&lt;div&gt;request&lt;/div&gt;&lt;div&gt;to process&lt;/div&gt;" style="edgeLabel;html=1;align=center;verticalAlign=middle;resizable=0;points=[];" vertex="1" connectable="0" parent="DC3W0lL9P1rpQiNHEUN1-620">
          <mxGeometry x="0.06" relative="1" as="geometry">
            <mxPoint x="-14" y="3" as="offset" />
          </mxGeometry>
        </mxCell>
        <mxCell id="DC3W0lL9P1rpQiNHEUN1-622" value="&lt;div&gt;Package&lt;/div&gt;&lt;div&gt;publishers&lt;/div&gt;" style="rounded=0;whiteSpace=wrap;html=1;fillColor=#e1d5e7;strokeColor=#9673a6;" vertex="1" parent="DC3W0lL9P1rpQiNHEUN1-613">
          <mxGeometry x="30" y="80" width="120" height="60" as="geometry" />
        </mxCell>
        <mxCell id="DC3W0lL9P1rpQiNHEUN1-623" value="End users" style="rounded=0;whiteSpace=wrap;html=1;fillColor=#d5e8d4;strokeColor=#82b366;" vertex="1" parent="DC3W0lL9P1rpQiNHEUN1-613">
          <mxGeometry x="30" y="209.99999999999994" width="120" height="60" as="geometry" />
        </mxCell>
        <mxCell id="DC3W0lL9P1rpQiNHEUN1-686" value="" style="endArrow=none;html=1;rounded=0;entryX=0.032;entryY=0.744;entryDx=0;entryDy=0;entryPerimeter=0;startArrow=classic;startFill=1;endFill=0;exitX=1;exitY=1;exitDx=0;exitDy=0;" edge="1" parent="DC3W0lL9P1rpQiNHEUN1-613">
          <mxGeometry width="50" height="50" relative="1" as="geometry">
            <mxPoint x="150" y="131" as="sourcePoint" />
            <mxPoint x="353.8399999999999" y="130.2800000000002" as="targetPoint" />
          </mxGeometry>
        </mxCell>
        <mxCell id="DC3W0lL9P1rpQiNHEUN1-687" value="&lt;div&gt;response&lt;/div&gt;&lt;div&gt;from process&lt;/div&gt;" style="edgeLabel;html=1;align=center;verticalAlign=middle;resizable=0;points=[];" vertex="1" connectable="0" parent="DC3W0lL9P1rpQiNHEUN1-686">
          <mxGeometry x="-0.067" relative="1" as="geometry">
            <mxPoint as="offset" />
          </mxGeometry>
        </mxCell>
        <mxCell id="DC3W0lL9P1rpQiNHEUN1-688" style="edgeStyle=orthogonalEdgeStyle;rounded=0;orthogonalLoop=1;jettySize=auto;html=1;exitX=1;exitY=0;exitDx=0;exitDy=0;" edge="1" parent="DC3W0lL9P1rpQiNHEUN1-613" source="DC3W0lL9P1rpQiNHEUN1-623">
          <mxGeometry relative="1" as="geometry">
            <mxPoint x="190" y="223" as="sourcePoint" />
            <mxPoint x="370" y="160" as="targetPoint" />
            <Array as="points">
              <mxPoint x="370" y="210" />
            </Array>
          </mxGeometry>
        </mxCell>
        <mxCell id="DC3W0lL9P1rpQiNHEUN1-689" value="&lt;div&gt;request&lt;/div&gt;&lt;div&gt;to process&lt;/div&gt;" style="edgeLabel;html=1;align=center;verticalAlign=middle;resizable=0;points=[];" vertex="1" connectable="0" parent="DC3W0lL9P1rpQiNHEUN1-688">
          <mxGeometry x="0.06" relative="1" as="geometry">
            <mxPoint x="-32" as="offset" />
          </mxGeometry>
        </mxCell>
        <mxCell id="DC3W0lL9P1rpQiNHEUN1-690" style="edgeStyle=orthogonalEdgeStyle;rounded=0;orthogonalLoop=1;jettySize=auto;html=1;entryX=0.983;entryY=0.667;entryDx=0;entryDy=0;entryPerimeter=0;exitX=-0.003;exitY=0.844;exitDx=0;exitDy=0;exitPerimeter=0;" edge="1" parent="DC3W0lL9P1rpQiNHEUN1-613" source="DC3W0lL9P1rpQiNHEUN1-619" target="DC3W0lL9P1rpQiNHEUN1-618">
          <mxGeometry relative="1" as="geometry">
            <mxPoint x="610" y="190" as="sourcePoint" />
            <Array as="points">
              <mxPoint x="480" y="131" />
              <mxPoint x="468" y="130" />
            </Array>
          </mxGeometry>
        </mxCell>
        <mxCell id="DC3W0lL9P1rpQiNHEUN1-691" value="&lt;div&gt;response&lt;/div&gt;&lt;div&gt;to process&lt;/div&gt;" style="edgeLabel;html=1;align=center;verticalAlign=middle;resizable=0;points=[];" vertex="1" connectable="0" parent="DC3W0lL9P1rpQiNHEUN1-690">
          <mxGeometry x="0.033" y="-1" relative="1" as="geometry">
            <mxPoint as="offset" />
          </mxGeometry>
        </mxCell>
        <mxCell id="DC3W0lL9P1rpQiNHEUN1-624" value="Packaging" style="swimlane;whiteSpace=wrap;html=1;fontSize=12;" vertex="1" collapsed="1" parent="DC3W0lL9P1rpQiNHEUN1-613">
          <mxGeometry x="365" y="95" width="90" height="30" as="geometry">
            <mxRectangle x="1655" y="540" width="1375" height="980" as="alternateBounds" />
          </mxGeometry>
        </mxCell>
        <mxCell id="DC3W0lL9P1rpQiNHEUN1-625" value="&lt;span style=&quot;color: rgb(9, 153, 1);&quot;&gt;end user&lt;/span&gt;" style="html=1;fontColor=#999999;fontStyle=1;align=left;verticalAlign=top;spacing=0;labelBorderColor=none;fillColor=none;dashed=1;strokeWidth=2;strokeColor=#099901;spacingLeft=4;spacingTop=-3;" vertex="1" parent="DC3W0lL9P1rpQiNHEUN1-624">
          <mxGeometry x="20" y="40" width="660" height="920" as="geometry" />
        </mxCell>
        <mxCell id="DC3W0lL9P1rpQiNHEUN1-626" value="&lt;div&gt;Packages&lt;/div&gt;&lt;div&gt;records with&lt;/div&gt;&lt;div&gt;their&lt;/div&gt;&lt;div&gt;metadata&lt;/div&gt;" style="shape=partialRectangle;whiteSpace=wrap;html=1;left=0;right=0;fillColor=none;" vertex="1" parent="DC3W0lL9P1rpQiNHEUN1-624">
          <mxGeometry x="540" y="390.00000000000006" width="120" height="80" as="geometry" />
        </mxCell>
        <mxCell id="DC3W0lL9P1rpQiNHEUN1-627" style="edgeStyle=orthogonalEdgeStyle;rounded=0;orthogonalLoop=1;jettySize=auto;html=1;entryX=1;entryY=0.5;entryDx=0;entryDy=0;" edge="1" parent="DC3W0lL9P1rpQiNHEUN1-624" source="DC3W0lL9P1rpQiNHEUN1-634" target="DC3W0lL9P1rpQiNHEUN1-649">
          <mxGeometry relative="1" as="geometry" />
        </mxCell>
        <mxCell id="DC3W0lL9P1rpQiNHEUN1-628" value="&lt;div&gt;error&lt;/div&gt;&lt;div&gt;response&lt;/div&gt;" style="edgeLabel;html=1;align=center;verticalAlign=middle;resizable=0;points=[];" vertex="1" connectable="0" parent="DC3W0lL9P1rpQiNHEUN1-627">
          <mxGeometry x="-0.2105" y="-2" relative="1" as="geometry">
            <mxPoint as="offset" />
          </mxGeometry>
        </mxCell>
        <mxCell id="DC3W0lL9P1rpQiNHEUN1-629" style="edgeStyle=orthogonalEdgeStyle;rounded=0;orthogonalLoop=1;jettySize=auto;html=1;entryX=0;entryY=0.25;entryDx=0;entryDy=0;exitX=1;exitY=0;exitDx=0;exitDy=0;" edge="1" parent="DC3W0lL9P1rpQiNHEUN1-624" source="DC3W0lL9P1rpQiNHEUN1-634" target="DC3W0lL9P1rpQiNHEUN1-626">
          <mxGeometry relative="1" as="geometry">
            <Array as="points">
              <mxPoint x="288" y="410" />
            </Array>
          </mxGeometry>
        </mxCell>
        <mxCell id="DC3W0lL9P1rpQiNHEUN1-630" value="123" style="edgeLabel;html=1;align=center;verticalAlign=middle;resizable=0;points=[];" vertex="1" connectable="0" parent="DC3W0lL9P1rpQiNHEUN1-629">
          <mxGeometry x="0.0524" y="1" relative="1" as="geometry">
            <mxPoint x="-7" y="1" as="offset" />
          </mxGeometry>
        </mxCell>
        <mxCell id="DC3W0lL9P1rpQiNHEUN1-759" value="&lt;div&gt;package name,&lt;/div&gt;&lt;div&gt;version, etc.&lt;/div&gt;" style="edgeLabel;html=1;align=center;verticalAlign=middle;resizable=0;points=[];" vertex="1" connectable="0" parent="DC3W0lL9P1rpQiNHEUN1-629">
          <mxGeometry x="0.0084" y="-1" relative="1" as="geometry">
            <mxPoint as="offset" />
          </mxGeometry>
        </mxCell>
        <mxCell id="DC3W0lL9P1rpQiNHEUN1-771" style="edgeStyle=orthogonalEdgeStyle;rounded=0;orthogonalLoop=1;jettySize=auto;html=1;entryX=0.5;entryY=0;entryDx=0;entryDy=0;" edge="1" parent="DC3W0lL9P1rpQiNHEUN1-624" source="DC3W0lL9P1rpQiNHEUN1-634" target="DC3W0lL9P1rpQiNHEUN1-764">
          <mxGeometry relative="1" as="geometry" />
        </mxCell>
        <mxCell id="DC3W0lL9P1rpQiNHEUN1-634" value="&lt;div&gt;&lt;font style=&quot;font-size: 12px;&quot;&gt;search for specific&lt;/font&gt;&lt;/div&gt;&lt;div&gt;&lt;font style=&quot;font-size: 12px;&quot;&gt;package&lt;/font&gt;&lt;/div&gt;" style="ellipse;whiteSpace=wrap;html=1;aspect=fixed;fontSize=8;" vertex="1" parent="DC3W0lL9P1rpQiNHEUN1-624">
          <mxGeometry x="220" y="400" width="80" height="80" as="geometry" />
        </mxCell>
        <mxCell id="DC3W0lL9P1rpQiNHEUN1-635" style="edgeStyle=orthogonalEdgeStyle;rounded=0;orthogonalLoop=1;jettySize=auto;html=1;entryX=0;entryY=0.25;entryDx=0;entryDy=0;exitX=0.932;exitY=0.277;exitDx=0;exitDy=0;exitPerimeter=0;" edge="1" parent="DC3W0lL9P1rpQiNHEUN1-624" source="DC3W0lL9P1rpQiNHEUN1-641" target="DC3W0lL9P1rpQiNHEUN1-642">
          <mxGeometry relative="1" as="geometry" />
        </mxCell>
        <mxCell id="DC3W0lL9P1rpQiNHEUN1-636" value="&lt;div&gt;user_id/user_name/user_email&lt;/div&gt;&lt;div&gt;(some unique Identifier)&lt;/div&gt;" style="edgeLabel;html=1;align=center;verticalAlign=middle;resizable=0;points=[];" vertex="1" connectable="0" parent="DC3W0lL9P1rpQiNHEUN1-635">
          <mxGeometry x="-0.0278" relative="1" as="geometry">
            <mxPoint as="offset" />
          </mxGeometry>
        </mxCell>
        <mxCell id="DC3W0lL9P1rpQiNHEUN1-637" style="edgeStyle=orthogonalEdgeStyle;rounded=0;orthogonalLoop=1;jettySize=auto;html=1;entryX=0.5;entryY=0;entryDx=0;entryDy=0;" edge="1" parent="DC3W0lL9P1rpQiNHEUN1-624" source="DC3W0lL9P1rpQiNHEUN1-641" target="DC3W0lL9P1rpQiNHEUN1-634">
          <mxGeometry relative="1" as="geometry" />
        </mxCell>
        <mxCell id="DC3W0lL9P1rpQiNHEUN1-638" value="&lt;div&gt;success&lt;/div&gt;&lt;div&gt;result&lt;/div&gt;" style="edgeLabel;html=1;align=center;verticalAlign=middle;resizable=0;points=[];" vertex="1" connectable="0" parent="DC3W0lL9P1rpQiNHEUN1-637">
          <mxGeometry x="-0.1852" relative="1" as="geometry">
            <mxPoint y="8" as="offset" />
          </mxGeometry>
        </mxCell>
        <mxCell id="DC3W0lL9P1rpQiNHEUN1-639" style="edgeStyle=orthogonalEdgeStyle;rounded=0;orthogonalLoop=1;jettySize=auto;html=1;entryX=1;entryY=0.5;entryDx=0;entryDy=0;" edge="1" parent="DC3W0lL9P1rpQiNHEUN1-624" source="DC3W0lL9P1rpQiNHEUN1-641" target="DC3W0lL9P1rpQiNHEUN1-648">
          <mxGeometry relative="1" as="geometry">
            <mxPoint x="140" y="280" as="targetPoint" />
          </mxGeometry>
        </mxCell>
        <mxCell id="DC3W0lL9P1rpQiNHEUN1-640" value="&lt;div&gt;error&lt;/div&gt;&lt;div&gt;response&lt;/div&gt;" style="edgeLabel;html=1;align=center;verticalAlign=middle;resizable=0;points=[];" vertex="1" connectable="0" parent="DC3W0lL9P1rpQiNHEUN1-639">
          <mxGeometry x="-0.197" y="1" relative="1" as="geometry">
            <mxPoint as="offset" />
          </mxGeometry>
        </mxCell>
        <mxCell id="DC3W0lL9P1rpQiNHEUN1-641" value="&lt;div&gt;&lt;font style=&quot;font-size: 8px;&quot;&gt;check if user&lt;/font&gt;&lt;/div&gt;&lt;div&gt;&lt;font style=&quot;font-size: 8px;&quot;&gt;is not banned,&lt;/font&gt;&lt;/div&gt;&lt;div&gt;&lt;font style=&quot;font-size: 8px;&quot;&gt;deactivated,&lt;/font&gt;&lt;/div&gt;&lt;div&gt;&lt;font style=&quot;font-size: 8px;&quot;&gt;blocked from&lt;/font&gt;&lt;/div&gt;&lt;div&gt;&lt;font style=&quot;font-size: 8px;&quot;&gt;downloading&lt;/font&gt;&lt;/div&gt;" style="ellipse;whiteSpace=wrap;html=1;aspect=fixed;" vertex="1" parent="DC3W0lL9P1rpQiNHEUN1-624">
          <mxGeometry x="220" y="240" width="80" height="80" as="geometry" />
        </mxCell>
        <mxCell id="DC3W0lL9P1rpQiNHEUN1-642" value="&lt;div&gt;Users&lt;/div&gt;&lt;div&gt;records&lt;/div&gt;" style="shape=partialRectangle;whiteSpace=wrap;html=1;left=0;right=0;fillColor=none;" vertex="1" parent="DC3W0lL9P1rpQiNHEUN1-624">
          <mxGeometry x="540" y="240" width="120" height="80" as="geometry" />
        </mxCell>
        <mxCell id="DC3W0lL9P1rpQiNHEUN1-643" style="edgeStyle=orthogonalEdgeStyle;rounded=0;orthogonalLoop=1;jettySize=auto;html=1;exitX=0;exitY=0.75;exitDx=0;exitDy=0;entryX=0.908;entryY=0.756;entryDx=0;entryDy=0;entryPerimeter=0;" edge="1" parent="DC3W0lL9P1rpQiNHEUN1-624" source="DC3W0lL9P1rpQiNHEUN1-642" target="DC3W0lL9P1rpQiNHEUN1-641">
          <mxGeometry relative="1" as="geometry">
            <mxPoint x="520" y="330" as="sourcePoint" />
            <mxPoint x="330" y="330" as="targetPoint" />
            <Array as="points">
              <mxPoint x="308" y="300" />
            </Array>
          </mxGeometry>
        </mxCell>
        <mxCell id="DC3W0lL9P1rpQiNHEUN1-644" value="user_status" style="edgeLabel;html=1;align=center;verticalAlign=middle;resizable=0;points=[];" vertex="1" connectable="0" parent="DC3W0lL9P1rpQiNHEUN1-643">
          <mxGeometry x="0.0328" y="2" relative="1" as="geometry">
            <mxPoint as="offset" />
          </mxGeometry>
        </mxCell>
        <mxCell id="DC3W0lL9P1rpQiNHEUN1-645" style="edgeStyle=orthogonalEdgeStyle;rounded=0;orthogonalLoop=1;jettySize=auto;html=1;entryX=0.5;entryY=0;entryDx=0;entryDy=0;" edge="1" parent="DC3W0lL9P1rpQiNHEUN1-624" source="DC3W0lL9P1rpQiNHEUN1-647" target="DC3W0lL9P1rpQiNHEUN1-641">
          <mxGeometry relative="1" as="geometry" />
        </mxCell>
        <mxCell id="DC3W0lL9P1rpQiNHEUN1-646" value="&lt;div&gt;&lt;span style=&quot;color: light-dark(rgb(0, 0, 0), rgb(255, 0, 0));&quot;&gt;user_metadata,&amp;nbsp;&lt;/span&gt;&lt;/div&gt;&lt;div&gt;&lt;span style=&quot;color: light-dark(rgb(0, 0, 0), rgb(255, 0, 0));&quot;&gt;request to download package&lt;/span&gt;&lt;/div&gt;&lt;div&gt;&lt;span style=&quot;color: light-dark(rgb(0, 0, 0), rgb(255, 0, 0));&quot;&gt;(data about package like version, name, etc.)&lt;/span&gt;&lt;/div&gt;" style="edgeLabel;html=1;align=center;verticalAlign=middle;resizable=0;points=[];" vertex="1" connectable="0" parent="DC3W0lL9P1rpQiNHEUN1-645">
          <mxGeometry x="-0.1371" relative="1" as="geometry">
            <mxPoint y="3" as="offset" />
          </mxGeometry>
        </mxCell>
        <mxCell id="DC3W0lL9P1rpQiNHEUN1-647" value="&lt;div&gt;input&lt;/div&gt;&lt;div&gt;from&lt;/div&gt;&lt;div&gt;end user&lt;/div&gt;" style="ellipse;whiteSpace=wrap;html=1;aspect=fixed;fillColor=#d5e8d4;strokeColor=#82b366;" vertex="1" parent="DC3W0lL9P1rpQiNHEUN1-624">
          <mxGeometry x="220" y="50" width="80" height="80" as="geometry" />
        </mxCell>
        <mxCell id="DC3W0lL9P1rpQiNHEUN1-648" value="&lt;div&gt;output&lt;/div&gt;&lt;div&gt;to end&lt;/div&gt;&lt;div&gt;user&lt;/div&gt;" style="ellipse;whiteSpace=wrap;html=1;aspect=fixed;fillColor=#d5e8d4;strokeColor=#82b366;" vertex="1" parent="DC3W0lL9P1rpQiNHEUN1-624">
          <mxGeometry x="40" y="240" width="80" height="80" as="geometry" />
        </mxCell>
        <mxCell id="DC3W0lL9P1rpQiNHEUN1-649" value="&lt;div&gt;output&lt;/div&gt;&lt;div&gt;to end&lt;/div&gt;&lt;div&gt;user&lt;/div&gt;" style="ellipse;whiteSpace=wrap;html=1;aspect=fixed;fillColor=#d5e8d4;strokeColor=#82b366;" vertex="1" parent="DC3W0lL9P1rpQiNHEUN1-624">
          <mxGeometry x="40" y="400" width="80" height="80" as="geometry" />
        </mxCell>
        <mxCell id="DC3W0lL9P1rpQiNHEUN1-650" style="edgeStyle=orthogonalEdgeStyle;rounded=0;orthogonalLoop=1;jettySize=auto;html=1;exitX=0;exitY=0.75;exitDx=0;exitDy=0;entryX=0.967;entryY=0.624;entryDx=0;entryDy=0;entryPerimeter=0;" edge="1" parent="DC3W0lL9P1rpQiNHEUN1-624" source="DC3W0lL9P1rpQiNHEUN1-626" target="DC3W0lL9P1rpQiNHEUN1-634">
          <mxGeometry relative="1" as="geometry">
            <mxPoint x="320" y="470" as="targetPoint" />
            <Array as="points" />
          </mxGeometry>
        </mxCell>
        <mxCell id="DC3W0lL9P1rpQiNHEUN1-651" value="&lt;div&gt;found&amp;nbsp;&lt;/div&gt;&lt;div&gt;packages&lt;/div&gt;&lt;div&gt;metadata or not&lt;/div&gt;" style="edgeLabel;html=1;align=center;verticalAlign=middle;resizable=0;points=[];" vertex="1" connectable="0" parent="DC3W0lL9P1rpQiNHEUN1-650">
          <mxGeometry x="-0.021" relative="1" as="geometry">
            <mxPoint x="-10" as="offset" />
          </mxGeometry>
        </mxCell>
        <mxCell id="DC3W0lL9P1rpQiNHEUN1-658" value="SELECT" style="text;html=1;align=center;verticalAlign=middle;whiteSpace=wrap;rounded=0;" vertex="1" parent="DC3W0lL9P1rpQiNHEUN1-624">
          <mxGeometry x="570" y="350" width="60" height="30" as="geometry" />
        </mxCell>
        <mxCell id="DC3W0lL9P1rpQiNHEUN1-659" value="SELECT" style="text;html=1;align=center;verticalAlign=middle;whiteSpace=wrap;rounded=0;" vertex="1" parent="DC3W0lL9P1rpQiNHEUN1-624">
          <mxGeometry x="570" y="200" width="60" height="30" as="geometry" />
        </mxCell>
        <mxCell id="DC3W0lL9P1rpQiNHEUN1-780" style="edgeStyle=orthogonalEdgeStyle;rounded=0;orthogonalLoop=1;jettySize=auto;html=1;entryX=1;entryY=0.5;entryDx=0;entryDy=0;" edge="1" parent="DC3W0lL9P1rpQiNHEUN1-624" source="DC3W0lL9P1rpQiNHEUN1-102" target="DC3W0lL9P1rpQiNHEUN1-129">
          <mxGeometry relative="1" as="geometry" />
        </mxCell>
        <mxCell id="DC3W0lL9P1rpQiNHEUN1-781" style="edgeStyle=orthogonalEdgeStyle;rounded=0;orthogonalLoop=1;jettySize=auto;html=1;entryX=0;entryY=0.25;entryDx=0;entryDy=0;" edge="1" parent="DC3W0lL9P1rpQiNHEUN1-624" source="DC3W0lL9P1rpQiNHEUN1-102" target="DC3W0lL9P1rpQiNHEUN1-114">
          <mxGeometry relative="1" as="geometry">
            <Array as="points">
              <mxPoint x="355" y="830" />
              <mxPoint x="355" y="830" />
            </Array>
          </mxGeometry>
        </mxCell>
        <mxCell id="DC3W0lL9P1rpQiNHEUN1-782" style="edgeStyle=orthogonalEdgeStyle;rounded=0;orthogonalLoop=1;jettySize=auto;html=1;entryX=0;entryY=0.75;entryDx=0;entryDy=0;startArrow=classic;startFill=1;endArrow=none;endFill=0;" edge="1" parent="DC3W0lL9P1rpQiNHEUN1-624" source="DC3W0lL9P1rpQiNHEUN1-102" target="DC3W0lL9P1rpQiNHEUN1-114">
          <mxGeometry relative="1" as="geometry">
            <Array as="points">
              <mxPoint x="345" y="870" />
              <mxPoint x="345" y="870" />
            </Array>
          </mxGeometry>
        </mxCell>
        <mxCell id="DC3W0lL9P1rpQiNHEUN1-102" value="Download package" style="ellipse;whiteSpace=wrap;html=1;aspect=fixed;" vertex="1" parent="DC3W0lL9P1rpQiNHEUN1-624">
          <mxGeometry x="220" y="810" width="80" height="80" as="geometry" />
        </mxCell>
        <mxCell id="DC3W0lL9P1rpQiNHEUN1-149" value="&lt;div&gt;с помощью определенного протокола&lt;/div&gt;&lt;div&gt;(batch downloading)&lt;/div&gt;" style="text;whiteSpace=wrap;html=1;" vertex="1" parent="DC3W0lL9P1rpQiNHEUN1-624">
          <mxGeometry x="135" y="870" width="85" height="80" as="geometry" />
        </mxCell>
        <mxCell id="DC3W0lL9P1rpQiNHEUN1-757" value="&lt;div&gt;packages related to&lt;/div&gt;&lt;div&gt;blocked user&lt;/div&gt;&lt;div&gt;is not valid, prohibited&amp;nbsp;&lt;/div&gt;&lt;div&gt;from downloading,&lt;/div&gt;&lt;div&gt;или те что имеют подозрительные показатели и т.д. (баллы от 0 до 100)&lt;/div&gt;" style="text;html=1;align=center;verticalAlign=middle;whiteSpace=wrap;rounded=0;" vertex="1" parent="DC3W0lL9P1rpQiNHEUN1-624">
          <mxGeometry x="330" y="610" width="140" height="70" as="geometry" />
        </mxCell>
        <mxCell id="DC3W0lL9P1rpQiNHEUN1-778" style="edgeStyle=orthogonalEdgeStyle;rounded=0;orthogonalLoop=1;jettySize=auto;html=1;entryX=0.5;entryY=0;entryDx=0;entryDy=0;" edge="1" parent="DC3W0lL9P1rpQiNHEUN1-624" source="DC3W0lL9P1rpQiNHEUN1-764" target="DC3W0lL9P1rpQiNHEUN1-777">
          <mxGeometry relative="1" as="geometry" />
        </mxCell>
        <mxCell id="DC3W0lL9P1rpQiNHEUN1-764" value="&lt;div&gt;Check&lt;/div&gt;&lt;div&gt;if package&lt;/div&gt;&lt;div&gt;is &quot;okay&quot;&lt;/div&gt;" style="ellipse;whiteSpace=wrap;html=1;aspect=fixed;" vertex="1" parent="DC3W0lL9P1rpQiNHEUN1-624">
          <mxGeometry x="220" y="540" width="80" height="80" as="geometry" />
        </mxCell>
        <mxCell id="DC3W0lL9P1rpQiNHEUN1-768" value="&lt;div&gt;safe and unsafe&lt;/div&gt;&lt;div&gt;mode which allow and disallow to download specific packages&lt;/div&gt;&lt;div&gt;or raiting&lt;/div&gt;" style="text;html=1;align=center;verticalAlign=middle;whiteSpace=wrap;rounded=0;" vertex="1" parent="DC3W0lL9P1rpQiNHEUN1-624">
          <mxGeometry x="485" y="620" width="130" height="50" as="geometry" />
        </mxCell>
        <mxCell id="DC3W0lL9P1rpQiNHEUN1-114" value="&lt;div&gt;File / blob storage&lt;/div&gt;&lt;div&gt;of packages and other data&lt;/div&gt;" style="shape=partialRectangle;whiteSpace=wrap;html=1;left=0;right=0;fillColor=none;" vertex="1" parent="DC3W0lL9P1rpQiNHEUN1-624">
          <mxGeometry x="495" y="810" width="120" height="80" as="geometry" />
        </mxCell>
        <mxCell id="DC3W0lL9P1rpQiNHEUN1-124" value="if package found: check in blob data storage" style="text;html=1;align=center;verticalAlign=middle;whiteSpace=wrap;rounded=0;" vertex="1" parent="DC3W0lL9P1rpQiNHEUN1-624">
          <mxGeometry x="345" y="790" width="95" height="30" as="geometry" />
        </mxCell>
        <mxCell id="DC3W0lL9P1rpQiNHEUN1-126" value="&lt;div&gt;package&lt;/div&gt;&lt;div&gt;data found or not&lt;/div&gt;" style="text;html=1;align=center;verticalAlign=middle;whiteSpace=wrap;rounded=0;" vertex="1" parent="DC3W0lL9P1rpQiNHEUN1-624">
          <mxGeometry x="362.5" y="880" width="60" height="30" as="geometry" />
        </mxCell>
        <mxCell id="DC3W0lL9P1rpQiNHEUN1-129" value="&lt;div&gt;Return package&lt;/div&gt;&lt;div&gt;data and metadata&lt;/div&gt;" style="ellipse;whiteSpace=wrap;html=1;aspect=fixed;fillColor=#d5e8d4;strokeColor=#82b366;" vertex="1" parent="DC3W0lL9P1rpQiNHEUN1-624">
          <mxGeometry x="45" y="810" width="80" height="80" as="geometry" />
        </mxCell>
        <mxCell id="DC3W0lL9P1rpQiNHEUN1-769" value="&lt;span style=&quot;color: rgb(127, 0, 255);&quot;&gt;package publisher&lt;/span&gt;" style="html=1;fontColor=#999999;fontStyle=1;align=left;verticalAlign=top;spacing=0;labelBorderColor=none;fillColor=none;dashed=1;strokeWidth=2;strokeColor=#6600CC;spacingLeft=4;spacingTop=-3;" vertex="1" parent="DC3W0lL9P1rpQiNHEUN1-624">
          <mxGeometry x="700" y="40" width="660" height="920" as="geometry" />
        </mxCell>
        <mxCell id="DC3W0lL9P1rpQiNHEUN1-770" value="&lt;span style=&quot;color: rgb(51, 153, 255);&quot;&gt;moderation and technical support&lt;/span&gt;" style="html=1;fontColor=#999999;fontStyle=1;align=left;verticalAlign=top;spacing=0;labelBorderColor=none;fillColor=none;dashed=1;strokeWidth=2;strokeColor=#007FFF;spacingLeft=4;spacingTop=-3;" vertex="1" parent="DC3W0lL9P1rpQiNHEUN1-624">
          <mxGeometry x="1005" y="520" width="335" height="220" as="geometry" />
        </mxCell>
        <mxCell id="DC3W0lL9P1rpQiNHEUN1-831" style="edgeStyle=orthogonalEdgeStyle;rounded=0;orthogonalLoop=1;jettySize=auto;html=1;entryX=1;entryY=0.5;entryDx=0;entryDy=0;" edge="1" parent="DC3W0lL9P1rpQiNHEUN1-624" source="DC3W0lL9P1rpQiNHEUN1-138" target="DC3W0lL9P1rpQiNHEUN1-823">
          <mxGeometry relative="1" as="geometry" />
        </mxCell>
        <mxCell id="DC3W0lL9P1rpQiNHEUN1-832" value="&lt;div&gt;error&lt;/div&gt;&lt;div&gt;response&lt;/div&gt;" style="edgeLabel;html=1;align=center;verticalAlign=middle;resizable=0;points=[];" vertex="1" connectable="0" parent="DC3W0lL9P1rpQiNHEUN1-831">
          <mxGeometry x="-0.1563" y="2" relative="1" as="geometry">
            <mxPoint as="offset" />
          </mxGeometry>
        </mxCell>
        <mxCell id="DC3W0lL9P1rpQiNHEUN1-840" style="edgeStyle=orthogonalEdgeStyle;rounded=0;orthogonalLoop=1;jettySize=auto;html=1;entryX=0.5;entryY=0;entryDx=0;entryDy=0;" edge="1" parent="DC3W0lL9P1rpQiNHEUN1-624" source="DC3W0lL9P1rpQiNHEUN1-138" target="DC3W0lL9P1rpQiNHEUN1-839">
          <mxGeometry relative="1" as="geometry" />
        </mxCell>
        <mxCell id="DC3W0lL9P1rpQiNHEUN1-841" value="&lt;div&gt;success&lt;/div&gt;&lt;div&gt;result&lt;/div&gt;" style="edgeLabel;html=1;align=center;verticalAlign=middle;resizable=0;points=[];" vertex="1" connectable="0" parent="DC3W0lL9P1rpQiNHEUN1-840">
          <mxGeometry x="-0.2114" y="1" relative="1" as="geometry">
            <mxPoint as="offset" />
          </mxGeometry>
        </mxCell>
        <mxCell id="DC3W0lL9P1rpQiNHEUN1-843" style="edgeStyle=orthogonalEdgeStyle;rounded=0;orthogonalLoop=1;jettySize=auto;html=1;entryX=0;entryY=0;entryDx=0;entryDy=0;exitX=0.963;exitY=0.246;exitDx=0;exitDy=0;exitPerimeter=0;" edge="1" parent="DC3W0lL9P1rpQiNHEUN1-624" source="DC3W0lL9P1rpQiNHEUN1-138" target="DC3W0lL9P1rpQiNHEUN1-835">
          <mxGeometry relative="1" as="geometry">
            <mxPoint x="966.4575131106467" y="610" as="sourcePoint" />
            <Array as="points">
              <mxPoint x="1247" y="610" />
            </Array>
          </mxGeometry>
        </mxCell>
        <mxCell id="DC3W0lL9P1rpQiNHEUN1-844" value="call moderation" style="edgeLabel;html=1;align=center;verticalAlign=middle;resizable=0;points=[];" vertex="1" connectable="0" parent="DC3W0lL9P1rpQiNHEUN1-843">
          <mxGeometry x="-0.2055" relative="1" as="geometry">
            <mxPoint x="14" as="offset" />
          </mxGeometry>
        </mxCell>
        <mxCell id="DC3W0lL9P1rpQiNHEUN1-138" value="&lt;div&gt;Wait for moderation&lt;/div&gt;&lt;div&gt;and validation&lt;/div&gt;&lt;div&gt;from system&lt;/div&gt;" style="ellipse;whiteSpace=wrap;html=1;aspect=fixed;" vertex="1" parent="DC3W0lL9P1rpQiNHEUN1-624">
          <mxGeometry x="900" y="590" width="80" height="80" as="geometry" />
        </mxCell>
        <mxCell id="DC3W0lL9P1rpQiNHEUN1-830" style="edgeStyle=orthogonalEdgeStyle;rounded=0;orthogonalLoop=1;jettySize=auto;html=1;exitX=0.5;exitY=1;exitDx=0;exitDy=0;" edge="1" parent="DC3W0lL9P1rpQiNHEUN1-624" source="DC3W0lL9P1rpQiNHEUN1-791" target="DC3W0lL9P1rpQiNHEUN1-138">
          <mxGeometry relative="1" as="geometry">
            <mxPoint x="940" y="620" as="sourcePoint" />
          </mxGeometry>
        </mxCell>
        <mxCell id="DC3W0lL9P1rpQiNHEUN1-779" style="edgeStyle=orthogonalEdgeStyle;rounded=0;orthogonalLoop=1;jettySize=auto;html=1;entryX=0.5;entryY=0;entryDx=0;entryDy=0;" edge="1" parent="DC3W0lL9P1rpQiNHEUN1-624" source="DC3W0lL9P1rpQiNHEUN1-777" target="DC3W0lL9P1rpQiNHEUN1-102">
          <mxGeometry relative="1" as="geometry" />
        </mxCell>
        <mxCell id="DC3W0lL9P1rpQiNHEUN1-777" value="&lt;div&gt;Score is less&lt;/div&gt;&lt;div&gt;than N points&lt;/div&gt;" style="ellipse;whiteSpace=wrap;html=1;aspect=fixed;" vertex="1" parent="DC3W0lL9P1rpQiNHEUN1-624">
          <mxGeometry x="220" y="670" width="80" height="80" as="geometry" />
        </mxCell>
        <mxCell id="DC3W0lL9P1rpQiNHEUN1-784" value="&lt;div&gt;Packages&lt;/div&gt;&lt;div&gt;records with&lt;/div&gt;&lt;div&gt;their&lt;/div&gt;&lt;div&gt;metadata&lt;/div&gt;" style="shape=partialRectangle;whiteSpace=wrap;html=1;left=0;right=0;fillColor=none;" vertex="1" parent="DC3W0lL9P1rpQiNHEUN1-624">
          <mxGeometry x="1220" y="390" width="120" height="80" as="geometry" />
        </mxCell>
        <mxCell id="DC3W0lL9P1rpQiNHEUN1-785" style="edgeStyle=orthogonalEdgeStyle;rounded=0;orthogonalLoop=1;jettySize=auto;html=1;entryX=1;entryY=0.5;entryDx=0;entryDy=0;" edge="1" parent="DC3W0lL9P1rpQiNHEUN1-624" source="DC3W0lL9P1rpQiNHEUN1-791" target="DC3W0lL9P1rpQiNHEUN1-806">
          <mxGeometry relative="1" as="geometry" />
        </mxCell>
        <mxCell id="DC3W0lL9P1rpQiNHEUN1-786" value="&lt;div&gt;error&lt;/div&gt;&lt;div&gt;response&lt;/div&gt;" style="edgeLabel;html=1;align=center;verticalAlign=middle;resizable=0;points=[];" vertex="1" connectable="0" parent="DC3W0lL9P1rpQiNHEUN1-785">
          <mxGeometry x="-0.2105" y="-2" relative="1" as="geometry">
            <mxPoint as="offset" />
          </mxGeometry>
        </mxCell>
        <mxCell id="DC3W0lL9P1rpQiNHEUN1-787" style="edgeStyle=orthogonalEdgeStyle;rounded=0;orthogonalLoop=1;jettySize=auto;html=1;entryX=0;entryY=0.25;entryDx=0;entryDy=0;exitX=1;exitY=0;exitDx=0;exitDy=0;" edge="1" parent="DC3W0lL9P1rpQiNHEUN1-624" source="DC3W0lL9P1rpQiNHEUN1-791" target="DC3W0lL9P1rpQiNHEUN1-784">
          <mxGeometry relative="1" as="geometry">
            <Array as="points">
              <mxPoint x="968" y="410" />
            </Array>
          </mxGeometry>
        </mxCell>
        <mxCell id="DC3W0lL9P1rpQiNHEUN1-788" value="123" style="edgeLabel;html=1;align=center;verticalAlign=middle;resizable=0;points=[];" vertex="1" connectable="0" parent="DC3W0lL9P1rpQiNHEUN1-787">
          <mxGeometry x="0.0524" y="1" relative="1" as="geometry">
            <mxPoint x="-7" y="1" as="offset" />
          </mxGeometry>
        </mxCell>
        <mxCell id="DC3W0lL9P1rpQiNHEUN1-789" value="&lt;div&gt;package name,&lt;/div&gt;&lt;div&gt;version, etc.&lt;/div&gt;" style="edgeLabel;html=1;align=center;verticalAlign=middle;resizable=0;points=[];" vertex="1" connectable="0" parent="DC3W0lL9P1rpQiNHEUN1-787">
          <mxGeometry x="0.0084" y="-1" relative="1" as="geometry">
            <mxPoint as="offset" />
          </mxGeometry>
        </mxCell>
        <mxCell id="DC3W0lL9P1rpQiNHEUN1-791" value="&lt;div&gt;&lt;font style=&quot;font-size: 10px;&quot;&gt;search for specific&lt;/font&gt;&lt;/div&gt;&lt;div&gt;&lt;font style=&quot;font-size: 10px;&quot;&gt;package&lt;/font&gt;&lt;/div&gt;&lt;div&gt;&lt;font style=&quot;font-size: 10px;&quot;&gt;and&amp;nbsp;check for basic collision/validation&lt;/font&gt;&lt;/div&gt;" style="ellipse;whiteSpace=wrap;html=1;aspect=fixed;fontSize=8;" vertex="1" parent="DC3W0lL9P1rpQiNHEUN1-624">
          <mxGeometry x="900" y="400" width="80" height="80" as="geometry" />
        </mxCell>
        <mxCell id="DC3W0lL9P1rpQiNHEUN1-792" style="edgeStyle=orthogonalEdgeStyle;rounded=0;orthogonalLoop=1;jettySize=auto;html=1;entryX=0;entryY=0.25;entryDx=0;entryDy=0;exitX=0.932;exitY=0.277;exitDx=0;exitDy=0;exitPerimeter=0;" edge="1" parent="DC3W0lL9P1rpQiNHEUN1-624" source="DC3W0lL9P1rpQiNHEUN1-798" target="DC3W0lL9P1rpQiNHEUN1-799">
          <mxGeometry relative="1" as="geometry" />
        </mxCell>
        <mxCell id="DC3W0lL9P1rpQiNHEUN1-793" value="&lt;div&gt;user_id/user_name/user_email&lt;/div&gt;&lt;div&gt;(some unique Identifier)&lt;/div&gt;" style="edgeLabel;html=1;align=center;verticalAlign=middle;resizable=0;points=[];" vertex="1" connectable="0" parent="DC3W0lL9P1rpQiNHEUN1-792">
          <mxGeometry x="-0.0278" relative="1" as="geometry">
            <mxPoint as="offset" />
          </mxGeometry>
        </mxCell>
        <mxCell id="DC3W0lL9P1rpQiNHEUN1-794" style="edgeStyle=orthogonalEdgeStyle;rounded=0;orthogonalLoop=1;jettySize=auto;html=1;entryX=0.5;entryY=0;entryDx=0;entryDy=0;" edge="1" parent="DC3W0lL9P1rpQiNHEUN1-624" source="DC3W0lL9P1rpQiNHEUN1-798" target="DC3W0lL9P1rpQiNHEUN1-791">
          <mxGeometry relative="1" as="geometry" />
        </mxCell>
        <mxCell id="DC3W0lL9P1rpQiNHEUN1-795" value="&lt;div&gt;success&lt;/div&gt;&lt;div&gt;result&lt;/div&gt;" style="edgeLabel;html=1;align=center;verticalAlign=middle;resizable=0;points=[];" vertex="1" connectable="0" parent="DC3W0lL9P1rpQiNHEUN1-794">
          <mxGeometry x="-0.1852" relative="1" as="geometry">
            <mxPoint y="8" as="offset" />
          </mxGeometry>
        </mxCell>
        <mxCell id="DC3W0lL9P1rpQiNHEUN1-796" style="edgeStyle=orthogonalEdgeStyle;rounded=0;orthogonalLoop=1;jettySize=auto;html=1;entryX=1;entryY=0.5;entryDx=0;entryDy=0;" edge="1" parent="DC3W0lL9P1rpQiNHEUN1-624" source="DC3W0lL9P1rpQiNHEUN1-798" target="DC3W0lL9P1rpQiNHEUN1-805">
          <mxGeometry relative="1" as="geometry">
            <mxPoint x="820" y="280" as="targetPoint" />
          </mxGeometry>
        </mxCell>
        <mxCell id="DC3W0lL9P1rpQiNHEUN1-797" value="&lt;div&gt;error&lt;/div&gt;&lt;div&gt;response&lt;/div&gt;" style="edgeLabel;html=1;align=center;verticalAlign=middle;resizable=0;points=[];" vertex="1" connectable="0" parent="DC3W0lL9P1rpQiNHEUN1-796">
          <mxGeometry x="-0.197" y="1" relative="1" as="geometry">
            <mxPoint as="offset" />
          </mxGeometry>
        </mxCell>
        <mxCell id="DC3W0lL9P1rpQiNHEUN1-798" value="&lt;div&gt;&lt;font style=&quot;font-size: 8px;&quot;&gt;check if user&lt;/font&gt;&lt;/div&gt;&lt;div&gt;&lt;font style=&quot;font-size: 8px;&quot;&gt;is not banned,&lt;/font&gt;&lt;/div&gt;&lt;div&gt;&lt;font style=&quot;font-size: 8px;&quot;&gt;deactivated,&lt;/font&gt;&lt;/div&gt;&lt;div&gt;&lt;font style=&quot;font-size: 8px;&quot;&gt;blocked from&lt;/font&gt;&lt;/div&gt;&lt;div&gt;&lt;font style=&quot;font-size: 8px;&quot;&gt;publishing/uploading&lt;/font&gt;&lt;/div&gt;" style="ellipse;whiteSpace=wrap;html=1;aspect=fixed;" vertex="1" parent="DC3W0lL9P1rpQiNHEUN1-624">
          <mxGeometry x="900" y="240" width="80" height="80" as="geometry" />
        </mxCell>
        <mxCell id="DC3W0lL9P1rpQiNHEUN1-799" value="&lt;div&gt;Users&lt;/div&gt;&lt;div&gt;records&lt;/div&gt;" style="shape=partialRectangle;whiteSpace=wrap;html=1;left=0;right=0;fillColor=none;" vertex="1" parent="DC3W0lL9P1rpQiNHEUN1-624">
          <mxGeometry x="1220" y="240" width="120" height="80" as="geometry" />
        </mxCell>
        <mxCell id="DC3W0lL9P1rpQiNHEUN1-800" style="edgeStyle=orthogonalEdgeStyle;rounded=0;orthogonalLoop=1;jettySize=auto;html=1;exitX=0;exitY=0.75;exitDx=0;exitDy=0;entryX=0.908;entryY=0.756;entryDx=0;entryDy=0;entryPerimeter=0;" edge="1" parent="DC3W0lL9P1rpQiNHEUN1-624" source="DC3W0lL9P1rpQiNHEUN1-799" target="DC3W0lL9P1rpQiNHEUN1-798">
          <mxGeometry relative="1" as="geometry">
            <mxPoint x="1200" y="330" as="sourcePoint" />
            <mxPoint x="1010" y="330" as="targetPoint" />
            <Array as="points">
              <mxPoint x="988" y="300" />
            </Array>
          </mxGeometry>
        </mxCell>
        <mxCell id="DC3W0lL9P1rpQiNHEUN1-801" value="user_status" style="edgeLabel;html=1;align=center;verticalAlign=middle;resizable=0;points=[];" vertex="1" connectable="0" parent="DC3W0lL9P1rpQiNHEUN1-800">
          <mxGeometry x="0.0328" y="2" relative="1" as="geometry">
            <mxPoint as="offset" />
          </mxGeometry>
        </mxCell>
        <mxCell id="DC3W0lL9P1rpQiNHEUN1-802" style="edgeStyle=orthogonalEdgeStyle;rounded=0;orthogonalLoop=1;jettySize=auto;html=1;entryX=0.5;entryY=0;entryDx=0;entryDy=0;" edge="1" parent="DC3W0lL9P1rpQiNHEUN1-624" source="DC3W0lL9P1rpQiNHEUN1-804" target="DC3W0lL9P1rpQiNHEUN1-798">
          <mxGeometry relative="1" as="geometry" />
        </mxCell>
        <mxCell id="DC3W0lL9P1rpQiNHEUN1-803" value="&lt;div&gt;&lt;span style=&quot;color: light-dark(rgb(0, 0, 0), rgb(255, 0, 0));&quot;&gt;user_metadata,&amp;nbsp;&lt;/span&gt;&lt;/div&gt;&lt;div&gt;&lt;span style=&quot;color: light-dark(rgb(0, 0, 0), rgb(255, 0, 0));&quot;&gt;request to upload/publish&lt;/span&gt;&lt;/div&gt;&lt;div&gt;&lt;span style=&quot;color: light-dark(rgb(0, 0, 0), rgb(255, 0, 0));&quot;&gt;package&lt;/span&gt;&lt;/div&gt;" style="edgeLabel;html=1;align=center;verticalAlign=middle;resizable=0;points=[];" vertex="1" connectable="0" parent="DC3W0lL9P1rpQiNHEUN1-802">
          <mxGeometry x="-0.1371" relative="1" as="geometry">
            <mxPoint y="3" as="offset" />
          </mxGeometry>
        </mxCell>
        <mxCell id="DC3W0lL9P1rpQiNHEUN1-804" value="&lt;div&gt;input&lt;/div&gt;&lt;div&gt;from&lt;/div&gt;&lt;div&gt;package&lt;/div&gt;&lt;div&gt;publisher&lt;/div&gt;" style="ellipse;whiteSpace=wrap;html=1;aspect=fixed;fillColor=#e1d5e7;strokeColor=#9673a6;" vertex="1" parent="DC3W0lL9P1rpQiNHEUN1-624">
          <mxGeometry x="900" y="50" width="80" height="80" as="geometry" />
        </mxCell>
        <mxCell id="DC3W0lL9P1rpQiNHEUN1-805" value="&lt;div&gt;output&lt;/div&gt;&lt;div&gt;to package&lt;/div&gt;&lt;div&gt;publisher&lt;/div&gt;" style="ellipse;whiteSpace=wrap;html=1;aspect=fixed;fillColor=#e1d5e7;strokeColor=#9673a6;" vertex="1" parent="DC3W0lL9P1rpQiNHEUN1-624">
          <mxGeometry x="720" y="240" width="80" height="80" as="geometry" />
        </mxCell>
        <mxCell id="DC3W0lL9P1rpQiNHEUN1-806" value="&lt;div&gt;output&lt;/div&gt;&lt;div&gt;to package&lt;/div&gt;&lt;div&gt;publisher&lt;/div&gt;" style="ellipse;whiteSpace=wrap;html=1;aspect=fixed;fillColor=#e1d5e7;strokeColor=#9673a6;" vertex="1" parent="DC3W0lL9P1rpQiNHEUN1-624">
          <mxGeometry x="720" y="400" width="80" height="80" as="geometry" />
        </mxCell>
        <mxCell id="DC3W0lL9P1rpQiNHEUN1-807" style="edgeStyle=orthogonalEdgeStyle;rounded=0;orthogonalLoop=1;jettySize=auto;html=1;exitX=0;exitY=0.75;exitDx=0;exitDy=0;entryX=0.967;entryY=0.624;entryDx=0;entryDy=0;entryPerimeter=0;" edge="1" parent="DC3W0lL9P1rpQiNHEUN1-624" source="DC3W0lL9P1rpQiNHEUN1-784" target="DC3W0lL9P1rpQiNHEUN1-791">
          <mxGeometry relative="1" as="geometry">
            <mxPoint x="1000" y="470" as="targetPoint" />
            <Array as="points" />
          </mxGeometry>
        </mxCell>
        <mxCell id="DC3W0lL9P1rpQiNHEUN1-808" value="&lt;div&gt;found&amp;nbsp;&lt;/div&gt;&lt;div&gt;packages&lt;/div&gt;&lt;div&gt;metadata or not&lt;/div&gt;" style="edgeLabel;html=1;align=center;verticalAlign=middle;resizable=0;points=[];" vertex="1" connectable="0" parent="DC3W0lL9P1rpQiNHEUN1-807">
          <mxGeometry x="-0.021" relative="1" as="geometry">
            <mxPoint x="-10" as="offset" />
          </mxGeometry>
        </mxCell>
        <mxCell id="DC3W0lL9P1rpQiNHEUN1-809" value="SELECT" style="text;html=1;align=center;verticalAlign=middle;whiteSpace=wrap;rounded=0;" vertex="1" parent="DC3W0lL9P1rpQiNHEUN1-624">
          <mxGeometry x="1250" y="350" width="60" height="30" as="geometry" />
        </mxCell>
        <mxCell id="DC3W0lL9P1rpQiNHEUN1-810" value="SELECT" style="text;html=1;align=center;verticalAlign=middle;whiteSpace=wrap;rounded=0;" vertex="1" parent="DC3W0lL9P1rpQiNHEUN1-624">
          <mxGeometry x="1250" y="200" width="60" height="30" as="geometry" />
        </mxCell>
        <mxCell id="DC3W0lL9P1rpQiNHEUN1-812" style="edgeStyle=orthogonalEdgeStyle;rounded=0;orthogonalLoop=1;jettySize=auto;html=1;entryX=0;entryY=0.25;entryDx=0;entryDy=0;" edge="1" parent="DC3W0lL9P1rpQiNHEUN1-624" target="DC3W0lL9P1rpQiNHEUN1-820">
          <mxGeometry relative="1" as="geometry">
            <Array as="points">
              <mxPoint x="1040.36" y="820" />
              <mxPoint x="1040.36" y="820" />
            </Array>
            <mxPoint x="980.0010161513777" y="820" as="sourcePoint" />
          </mxGeometry>
        </mxCell>
        <mxCell id="DC3W0lL9P1rpQiNHEUN1-813" style="edgeStyle=orthogonalEdgeStyle;rounded=0;orthogonalLoop=1;jettySize=auto;html=1;entryX=0;entryY=0.75;entryDx=0;entryDy=0;startArrow=classic;startFill=1;endArrow=none;endFill=0;" edge="1" parent="DC3W0lL9P1rpQiNHEUN1-624" target="DC3W0lL9P1rpQiNHEUN1-820">
          <mxGeometry relative="1" as="geometry">
            <Array as="points">
              <mxPoint x="1030.36" y="860" />
              <mxPoint x="1030.36" y="860" />
            </Array>
            <mxPoint x="980.0010161513777" y="860" as="sourcePoint" />
          </mxGeometry>
        </mxCell>
        <mxCell id="DC3W0lL9P1rpQiNHEUN1-820" value="&lt;div&gt;File / blob storage&lt;/div&gt;&lt;div&gt;of packages and other data&lt;/div&gt;" style="shape=partialRectangle;whiteSpace=wrap;html=1;left=0;right=0;fillColor=none;" vertex="1" parent="DC3W0lL9P1rpQiNHEUN1-624">
          <mxGeometry x="1220" y="800" width="120" height="80" as="geometry" />
        </mxCell>
        <mxCell id="DC3W0lL9P1rpQiNHEUN1-821" value="package files" style="text;html=1;align=center;verticalAlign=middle;whiteSpace=wrap;rounded=0;" vertex="1" parent="DC3W0lL9P1rpQiNHEUN1-624">
          <mxGeometry x="1030.36" y="780" width="95" height="30" as="geometry" />
        </mxCell>
        <mxCell id="DC3W0lL9P1rpQiNHEUN1-823" value="&lt;div&gt;output&lt;/div&gt;&lt;div&gt;to package publisher&lt;/div&gt;" style="ellipse;whiteSpace=wrap;html=1;aspect=fixed;fillColor=#e1d5e7;strokeColor=#9673a6;" vertex="1" parent="DC3W0lL9P1rpQiNHEUN1-624">
          <mxGeometry x="725" y="590" width="80" height="80" as="geometry" />
        </mxCell>
        <mxCell id="DC3W0lL9P1rpQiNHEUN1-826" value="search if it is an duplicate or name mangling" style="text;html=1;align=center;verticalAlign=middle;whiteSpace=wrap;rounded=0;textOpacity=60;" vertex="1" parent="DC3W0lL9P1rpQiNHEUN1-624">
          <mxGeometry x="1042.5" y="350" width="100" height="30" as="geometry" />
        </mxCell>
        <mxCell id="DC3W0lL9P1rpQiNHEUN1-827" value="&lt;div&gt;also mention&lt;/div&gt;&lt;div&gt;that they can download/update/delete packages&lt;/div&gt;" style="ellipse;whiteSpace=wrap;html=1;aspect=fixed;textOpacity=70;fillColor=none;strokeColor=none;" vertex="1" parent="DC3W0lL9P1rpQiNHEUN1-624">
          <mxGeometry x="1022.5" y="50" width="80" height="80" as="geometry" />
        </mxCell>
        <mxCell id="DC3W0lL9P1rpQiNHEUN1-834" value="files identifiers" style="text;html=1;align=center;verticalAlign=middle;whiteSpace=wrap;rounded=0;" vertex="1" parent="DC3W0lL9P1rpQiNHEUN1-624">
          <mxGeometry x="1027.86" y="870" width="95" height="30" as="geometry" />
        </mxCell>
        <mxCell id="DC3W0lL9P1rpQiNHEUN1-836" style="edgeStyle=orthogonalEdgeStyle;rounded=0;orthogonalLoop=1;jettySize=auto;html=1;entryX=1;entryY=0.5;entryDx=0;entryDy=0;" edge="1" parent="DC3W0lL9P1rpQiNHEUN1-624" source="DC3W0lL9P1rpQiNHEUN1-835">
          <mxGeometry relative="1" as="geometry">
            <mxPoint x="980" y="640" as="targetPoint" />
          </mxGeometry>
        </mxCell>
        <mxCell id="DC3W0lL9P1rpQiNHEUN1-837" value="&lt;div&gt;approve or&lt;/div&gt;&lt;div&gt;disapprove&lt;/div&gt;" style="edgeLabel;html=1;align=center;verticalAlign=middle;resizable=0;points=[];" vertex="1" connectable="0" parent="DC3W0lL9P1rpQiNHEUN1-836">
          <mxGeometry x="-0.3382" y="-2" relative="1" as="geometry">
            <mxPoint x="-58" y="2" as="offset" />
          </mxGeometry>
        </mxCell>
        <mxCell id="DC3W0lL9P1rpQiNHEUN1-835" value="&lt;div&gt;input&lt;/div&gt;&lt;div&gt;from&lt;/div&gt;moderation" style="ellipse;whiteSpace=wrap;html=1;aspect=fixed;fillColor=#dae8fc;strokeColor=#6c8ebf;" vertex="1" parent="DC3W0lL9P1rpQiNHEUN1-624">
          <mxGeometry x="1235" y="600" width="80" height="80" as="geometry" />
        </mxCell>
        <mxCell id="DC3W0lL9P1rpQiNHEUN1-845" style="edgeStyle=orthogonalEdgeStyle;rounded=0;orthogonalLoop=1;jettySize=auto;html=1;entryX=1;entryY=0.5;entryDx=0;entryDy=0;" edge="1" parent="DC3W0lL9P1rpQiNHEUN1-624" source="DC3W0lL9P1rpQiNHEUN1-839" target="DC3W0lL9P1rpQiNHEUN1-842">
          <mxGeometry relative="1" as="geometry" />
        </mxCell>
        <mxCell id="DC3W0lL9P1rpQiNHEUN1-846" value="&lt;div&gt;success&lt;/div&gt;&lt;div&gt;result&lt;/div&gt;" style="edgeLabel;html=1;align=center;verticalAlign=middle;resizable=0;points=[];" vertex="1" connectable="0" parent="DC3W0lL9P1rpQiNHEUN1-845">
          <mxGeometry x="-0.0947" y="-2" relative="1" as="geometry">
            <mxPoint as="offset" />
          </mxGeometry>
        </mxCell>
        <mxCell id="DC3W0lL9P1rpQiNHEUN1-839" value="&lt;div&gt;Upload all&lt;/div&gt;&lt;div&gt;necessary&lt;/div&gt;&lt;div&gt;data&lt;/div&gt;" style="ellipse;whiteSpace=wrap;html=1;aspect=fixed;" vertex="1" parent="DC3W0lL9P1rpQiNHEUN1-624">
          <mxGeometry x="900" y="800" width="80" height="80" as="geometry" />
        </mxCell>
        <mxCell id="DC3W0lL9P1rpQiNHEUN1-842" value="&lt;div&gt;output&lt;/div&gt;&lt;div&gt;to package publisher&lt;/div&gt;" style="ellipse;whiteSpace=wrap;html=1;aspect=fixed;fillColor=#e1d5e7;strokeColor=#9673a6;" vertex="1" parent="DC3W0lL9P1rpQiNHEUN1-624">
          <mxGeometry x="725" y="800" width="80" height="80" as="geometry" />
        </mxCell>
        <mxCell id="DC3W0lL9P1rpQiNHEUN1-767" value="Attack tree / path / vectors" style="swimlane;whiteSpace=wrap;html=1;" vertex="1" parent="DC3W0lL9P1rpQiNHEUN1-33">
          <mxGeometry x="840" y="800" width="710" height="720" as="geometry" />
        </mxCell>
      </root>
    </mxGraphModel>
  </diagram>
</mxfile>
